<svg xmlns="http://www.w3.org/2000/svg" xmlns:xlink="http://www.w3.org/1999/xlink" width="200" zoomAndPan="magnify" viewBox="0 0 150 149.999998" height="200" preserveAspectRatio="xMidYMid meet" version="1.0"><defs><clipPath id="7b1e65274d"><path d="M 5 12.257812 L 145.25 12.257812 L 145.25 140.507812 L 5 140.507812 Z M 5 12.257812 " clip-rule="nonzero"/></clipPath><clipPath id="5d9187a5cc"><path d="M 139.964844 12.257812 L 10.285156 12.257812 C 7.386719 12.257812 5.027344 14.613281 5.027344 17.503906 L 5.027344 104.949219 C 5.027344 107.839844 7.386719 110.195312 10.285156 110.195312 L 58.847656 110.195312 C 60.101562 111.0625 61.414062 111.84375 62.785156 112.535156 L 59.863281 124.1875 L 40.660156 124.1875 C 37.761719 124.1875 35.402344 126.539062 35.402344 129.433594 L 35.402344 132.929688 C 35.402344 135.824219 37.761719 138.175781 40.660156 138.175781 L 109.589844 138.175781 C 112.195312 138.175781 114.359375 136.273438 114.769531 133.789062 L 118.769531 137.777344 C 120.53125 139.539062 122.878906 140.507812 125.375 140.507812 C 127.871094 140.507812 130.21875 139.539062 131.984375 137.777344 C 133.75 136.015625 134.722656 133.671875 134.722656 131.183594 C 134.722656 128.691406 133.75 126.347656 131.984375 124.585938 L 117.566406 110.195312 L 139.964844 110.195312 C 142.863281 110.195312 145.222656 107.839844 145.222656 104.949219 L 145.222656 17.503906 C 145.222656 14.613281 142.863281 12.257812 139.964844 12.257812 Z M 10.285156 16.921875 L 139.964844 16.921875 C 140.289062 16.921875 140.550781 17.183594 140.550781 17.503906 L 140.550781 91.539062 L 109.136719 91.539062 C 109.527344 90.027344 109.8125 88.46875 109.984375 86.878906 L 114.847656 86.878906 C 116.136719 86.878906 117.183594 85.832031 117.183594 84.546875 L 117.183594 56.5625 C 117.183594 55.277344 116.136719 54.230469 114.847656 54.230469 L 105.5 54.230469 C 104.210938 54.230469 103.164062 55.277344 103.164062 56.5625 L 103.164062 63.191406 C 97.167969 55.601562 87.875 50.71875 77.460938 50.71875 C 59.425781 50.71875 44.75 65.363281 44.75 83.367188 C 44.75 86.1875 45.109375 88.925781 45.789062 91.539062 L 9.699219 91.539062 L 9.699219 17.503906 C 9.699219 17.183594 9.960938 16.921875 10.285156 16.921875 Z M 110.503906 113.046875 L 107.203125 116.34375 L 98.871094 108.027344 C 100.050781 107.007812 101.152344 105.90625 102.175781 104.730469 Z M 90.386719 124.1875 L 87.910156 114.304688 C 90.457031 113.445312 92.867188 112.277344 95.09375 110.851562 L 103.898438 119.640625 C 102.984375 120.550781 102.984375 122.027344 103.898438 122.9375 L 105.148438 124.1875 Z M 49.421875 83.367188 C 49.421875 67.9375 62 55.382812 77.460938 55.382812 C 92.921875 55.382812 105.5 67.9375 105.5 83.367188 C 105.5 98.792969 92.921875 111.347656 77.460938 111.347656 C 62 111.347656 49.421875 98.792969 49.421875 83.367188 Z M 110.152344 82.214844 C 110.015625 78.351562 109.207031 74.660156 107.835938 71.25 L 107.835938 58.894531 L 112.511719 58.894531 L 112.511719 82.214844 Z M 9.699219 104.949219 L 9.699219 96.203125 L 47.386719 96.203125 C 48.875 99.660156 50.945312 102.8125 53.46875 105.53125 L 10.285156 105.53125 C 9.960938 105.53125 9.699219 105.269531 9.699219 104.949219 Z M 67.148438 114.347656 C 70.390625 115.425781 73.859375 116.011719 77.460938 116.011719 C 79.484375 116.011719 81.464844 115.824219 83.386719 115.472656 L 85.566406 124.1875 L 64.683594 124.1875 Z M 110.175781 132.929688 C 110.175781 133.253906 109.914062 133.511719 109.589844 133.511719 L 40.660156 133.511719 C 40.335938 133.511719 40.074219 133.253906 40.074219 132.929688 L 40.074219 129.433594 C 40.074219 129.113281 40.335938 128.851562 40.660156 128.851562 L 109.589844 128.851562 C 109.914062 128.851562 110.175781 129.113281 110.175781 129.433594 Z M 128.679688 134.480469 C 126.859375 136.296875 123.894531 136.296875 122.070312 134.480469 L 108.855469 121.289062 L 115.460938 114.695312 L 128.679688 127.882812 C 130.503906 129.703125 130.503906 132.660156 128.679688 134.480469 Z M 139.964844 105.53125 L 109.585938 105.53125 L 105.007812 100.960938 C 105.976562 99.453125 106.820312 97.863281 107.535156 96.203125 L 140.550781 96.203125 L 140.550781 104.949219 C 140.550781 105.269531 140.289062 105.53125 139.964844 105.53125 Z M 68.113281 86.878906 L 77.460938 86.878906 C 78.753906 86.878906 79.796875 85.832031 79.796875 84.546875 L 79.796875 70.554688 C 79.796875 69.265625 78.753906 68.222656 77.460938 68.222656 L 68.113281 68.222656 C 66.824219 68.222656 65.777344 69.265625 65.777344 70.554688 L 65.777344 84.546875 C 65.777344 85.832031 66.824219 86.878906 68.113281 86.878906 Z M 70.453125 72.886719 L 75.125 72.886719 L 75.125 82.214844 L 70.453125 82.214844 Z M 133.539062 47.238281 L 124.195312 47.238281 C 122.902344 47.238281 121.855469 48.28125 121.855469 49.566406 L 121.855469 84.546875 C 121.855469 85.832031 122.902344 86.878906 124.195312 86.878906 L 133.539062 86.878906 C 134.832031 86.878906 135.875 85.832031 135.875 84.546875 L 135.875 49.566406 C 135.875 48.28125 134.832031 47.238281 133.539062 47.238281 Z M 131.203125 82.214844 L 126.53125 82.214844 L 126.53125 51.898438 L 131.203125 51.898438 Z M 100.828125 83.367188 C 100.828125 70.507812 90.34375 60.046875 77.460938 60.046875 C 64.578125 60.046875 54.09375 70.507812 54.09375 83.367188 C 54.09375 96.222656 64.578125 106.683594 77.460938 106.683594 C 90.34375 106.683594 100.828125 96.222656 100.828125 83.367188 Z M 93.816406 74.347656 L 93.816406 82.214844 L 89.144531 82.214844 L 89.144531 68.820312 C 91.039062 70.335938 92.632812 72.214844 93.816406 74.347656 Z M 77.460938 64.710938 C 79.941406 64.710938 82.304688 65.199219 84.472656 66.078125 L 84.472656 84.546875 C 84.472656 85.832031 85.519531 86.878906 86.808594 86.878906 L 95.816406 86.878906 C 95.503906 88.515625 94.976562 90.082031 94.257812 91.539062 L 60.664062 91.539062 C 59.453125 89.070312 58.769531 86.296875 58.769531 83.367188 C 58.769531 73.078125 67.152344 64.710938 77.460938 64.710938 Z M 63.921875 96.203125 L 91.003906 96.203125 C 87.59375 99.78125 82.785156 102.019531 77.460938 102.019531 C 72.136719 102.019531 67.328125 99.78125 63.921875 96.203125 Z M 35.402344 63.558594 C 47 63.558594 56.433594 54.144531 56.433594 42.574219 C 56.433594 31 47 21.585938 35.402344 21.585938 C 23.808594 21.585938 14.375 31 14.375 42.574219 C 14.375 54.144531 23.808594 63.558594 35.402344 63.558594 Z M 35.402344 58.894531 C 31.734375 58.894531 28.34375 57.683594 25.613281 55.640625 L 36.371094 44.90625 L 51.589844 44.90625 C 50.453125 52.804688 43.628906 58.894531 35.402344 58.894531 Z M 51.589844 40.242188 L 37.738281 40.242188 L 37.738281 26.417969 C 44.890625 27.445312 50.5625 33.101562 51.589844 40.242188 Z M 33.066406 26.417969 L 33.066406 38.367188 L 22.921875 32.039062 C 25.449219 29.0625 29.019531 27 33.066406 26.417969 Z M 20.441406 35.992188 L 31.671875 42.996094 L 22.308594 52.34375 C 20.261719 49.617188 19.046875 46.234375 19.046875 42.574219 C 19.046875 40.230469 19.546875 38.007812 20.441406 35.992188 Z M 37.738281 68.222656 C 39.03125 68.222656 40.074219 69.265625 40.074219 70.554688 C 40.074219 71.84375 39.03125 72.886719 37.738281 72.886719 L 28.394531 72.886719 C 27.101562 72.886719 26.054688 71.84375 26.054688 70.554688 C 26.054688 69.265625 27.101562 68.222656 28.394531 68.222656 Z M 14.375 79.882812 C 14.375 78.59375 15.417969 77.550781 16.710938 77.550781 L 37.738281 77.550781 C 39.03125 77.550781 40.074219 78.59375 40.074219 79.882812 C 40.074219 81.167969 39.03125 82.214844 37.738281 82.214844 L 16.710938 82.214844 C 15.417969 82.214844 14.375 81.167969 14.375 79.882812 Z M 87.492188 40.925781 L 96.839844 31.597656 C 97.75 30.6875 99.230469 30.6875 100.144531 31.597656 L 103.164062 34.613281 L 112.027344 25.765625 C 112.9375 24.855469 114.417969 24.855469 115.332031 25.765625 L 121.855469 32.28125 L 127.898438 26.25 L 126.53125 26.25 C 125.238281 26.25 124.195312 25.207031 124.195312 23.917969 C 124.195312 22.628906 125.238281 21.585938 126.53125 21.585938 L 133.539062 21.585938 C 134.832031 21.585938 135.875 22.628906 135.875 23.917969 L 135.875 30.914062 C 135.875 32.203125 134.832031 33.246094 133.539062 33.246094 C 132.25 33.246094 131.203125 32.203125 131.203125 30.914062 L 131.203125 29.546875 L 123.507812 37.226562 C 122.597656 38.136719 121.117188 38.136719 120.207031 37.226562 L 113.679688 30.714844 L 104.816406 39.558594 C 103.902344 40.46875 102.425781 40.46875 101.511719 39.558594 L 98.492188 36.542969 L 90.796875 44.222656 C 90.339844 44.675781 89.742188 44.90625 89.144531 44.90625 C 88.546875 44.90625 87.949219 44.675781 87.492188 44.222656 C 86.578125 43.3125 86.578125 41.835938 87.492188 40.925781 Z M 61.105469 23.917969 C 61.105469 22.628906 62.152344 21.585938 63.441406 21.585938 L 86.808594 21.585938 C 88.097656 21.585938 89.144531 22.628906 89.144531 23.917969 C 89.144531 25.207031 88.097656 26.25 86.808594 26.25 L 63.441406 26.25 C 62.152344 26.25 61.105469 25.207031 61.105469 23.917969 Z M 84.472656 33.246094 C 84.472656 34.53125 83.425781 35.578125 82.136719 35.578125 L 68.113281 35.578125 C 66.824219 35.578125 65.777344 34.53125 65.777344 33.246094 C 65.777344 31.957031 66.824219 30.914062 68.113281 30.914062 L 82.136719 30.914062 C 83.425781 30.914062 84.472656 31.957031 84.472656 33.246094 Z M 82.136719 42.574219 C 82.136719 43.859375 81.089844 44.90625 79.796875 44.90625 L 70.453125 44.90625 C 69.160156 44.90625 68.113281 43.859375 68.113281 42.574219 C 68.113281 41.285156 69.160156 40.242188 70.453125 40.242188 L 79.796875 40.242188 C 81.089844 40.242188 82.136719 41.285156 82.136719 42.574219 Z M 82.136719 42.574219 " clip-rule="nonzero"/></clipPath><linearGradient x1="14.965013" gradientTransform="matrix(0.292076, 0, 0, 0.291477, 0.353481, -6.395445)" y1="502.964992" x2="474.965001" gradientUnits="userSpaceOnUse" y2="42.965009" id="f309d4cc3d"><stop stop-opacity="1" stop-color="rgb(36.898804%, 73.699951%, 89.7995%)" offset="0"/><stop stop-opacity="1" stop-color="rgb(36.898804%, 73.699951%, 89.7995%)" offset="0.0625"/><stop stop-opacity="1" stop-color="rgb(36.898804%, 73.699951%, 89.7995%)" offset="0.09375"/><stop stop-opacity="1" stop-color="rgb(36.898804%, 73.699951%, 89.7995%)" offset="0.109375"/><stop stop-opacity="1" stop-color="rgb(36.898804%, 73.699951%, 89.7995%)" offset="0.117188"/><stop stop-opacity="1" stop-color="rgb(38.465881%, 72.535706%, 89.7995%)" offset="0.121094"/><stop stop-opacity="1" stop-color="rgb(40.032959%, 71.372986%, 89.7995%)" offset="0.125"/><stop stop-opacity="1" stop-color="rgb(40.304565%, 71.160889%, 89.802551%)" offset="0.128906"/><stop stop-opacity="1" stop-color="rgb(40.577698%, 70.950317%, 89.807129%)" offset="0.132812"/><stop stop-opacity="1" stop-color="rgb(40.85083%, 70.739746%, 89.810181%)" offset="0.136719"/><stop stop-opacity="1" stop-color="rgb(41.123962%, 70.529175%, 89.813232%)" offset="0.140625"/><stop stop-opacity="1" stop-color="rgb(41.397095%, 70.317078%, 89.816284%)" offset="0.144531"/><stop stop-opacity="1" stop-color="rgb(41.670227%, 70.106506%, 89.820862%)" offset="0.148438"/><stop stop-opacity="1" stop-color="rgb(41.943359%, 69.894409%, 89.823914%)" offset="0.152344"/><stop stop-opacity="1" stop-color="rgb(42.216492%, 69.683838%, 89.826965%)" offset="0.15625"/><stop stop-opacity="1" stop-color="rgb(42.489624%, 69.471741%, 89.830017%)" offset="0.160156"/><stop stop-opacity="1" stop-color="rgb(42.762756%, 69.261169%, 89.834595%)" offset="0.164062"/><stop stop-opacity="1" stop-color="rgb(43.035889%, 69.049072%, 89.837646%)" offset="0.167969"/><stop stop-opacity="1" stop-color="rgb(43.309021%, 68.838501%, 89.840698%)" offset="0.171875"/><stop stop-opacity="1" stop-color="rgb(43.580627%, 68.626404%, 89.84375%)" offset="0.175781"/><stop stop-opacity="1" stop-color="rgb(43.85376%, 68.415833%, 89.848328%)" offset="0.179687"/><stop stop-opacity="1" stop-color="rgb(44.126892%, 68.203735%, 89.851379%)" offset="0.183594"/><stop stop-opacity="1" stop-color="rgb(44.400024%, 67.993164%, 89.855957%)" offset="0.1875"/><stop stop-opacity="1" stop-color="rgb(44.673157%, 67.781067%, 89.859009%)" offset="0.191406"/><stop stop-opacity="1" stop-color="rgb(44.946289%, 67.570496%, 89.862061%)" offset="0.195312"/><stop stop-opacity="1" stop-color="rgb(45.219421%, 67.358398%, 89.865112%)" offset="0.199219"/><stop stop-opacity="1" stop-color="rgb(45.492554%, 67.147827%, 89.86969%)" offset="0.203125"/><stop stop-opacity="1" stop-color="rgb(45.765686%, 66.93573%, 89.872742%)" offset="0.207031"/><stop stop-opacity="1" stop-color="rgb(46.038818%, 66.725159%, 89.875793%)" offset="0.210937"/><stop stop-opacity="1" stop-color="rgb(46.311951%, 66.513062%, 89.878845%)" offset="0.214844"/><stop stop-opacity="1" stop-color="rgb(46.585083%, 66.30249%, 89.883423%)" offset="0.21875"/><stop stop-opacity="1" stop-color="rgb(46.858215%, 66.090393%, 89.886475%)" offset="0.222656"/><stop stop-opacity="1" stop-color="rgb(47.131348%, 65.879822%, 89.889526%)" offset="0.226562"/><stop stop-opacity="1" stop-color="rgb(47.402954%, 65.667725%, 89.892578%)" offset="0.230469"/><stop stop-opacity="1" stop-color="rgb(47.676086%, 65.457153%, 89.897156%)" offset="0.234375"/><stop stop-opacity="1" stop-color="rgb(47.949219%, 65.246582%, 89.900208%)" offset="0.238281"/><stop stop-opacity="1" stop-color="rgb(48.222351%, 65.036011%, 89.903259%)" offset="0.242187"/><stop stop-opacity="1" stop-color="rgb(48.495483%, 64.823914%, 89.906311%)" offset="0.246094"/><stop stop-opacity="1" stop-color="rgb(48.768616%, 64.613342%, 89.910889%)" offset="0.25"/><stop stop-opacity="1" stop-color="rgb(49.041748%, 64.401245%, 89.91394%)" offset="0.253906"/><stop stop-opacity="1" stop-color="rgb(49.31488%, 64.190674%, 89.918518%)" offset="0.257812"/><stop stop-opacity="1" stop-color="rgb(49.588013%, 63.978577%, 89.92157%)" offset="0.261719"/><stop stop-opacity="1" stop-color="rgb(49.861145%, 63.768005%, 89.924622%)" offset="0.265625"/><stop stop-opacity="1" stop-color="rgb(50.134277%, 63.555908%, 89.927673%)" offset="0.269531"/><stop stop-opacity="1" stop-color="rgb(50.40741%, 63.345337%, 89.932251%)" offset="0.273438"/><stop stop-opacity="1" stop-color="rgb(50.679016%, 63.13324%, 89.935303%)" offset="0.277344"/><stop stop-opacity="1" stop-color="rgb(50.952148%, 62.922668%, 89.938354%)" offset="0.28125"/><stop stop-opacity="1" stop-color="rgb(51.225281%, 62.710571%, 89.941406%)" offset="0.285156"/><stop stop-opacity="1" stop-color="rgb(51.498413%, 62.5%, 89.945984%)" offset="0.289062"/><stop stop-opacity="1" stop-color="rgb(51.771545%, 62.287903%, 89.949036%)" offset="0.292969"/><stop stop-opacity="1" stop-color="rgb(52.044678%, 62.077332%, 89.952087%)" offset="0.296875"/><stop stop-opacity="1" stop-color="rgb(52.31781%, 61.865234%, 89.955139%)" offset="0.300781"/><stop stop-opacity="1" stop-color="rgb(52.590942%, 61.654663%, 89.959717%)" offset="0.304687"/><stop stop-opacity="1" stop-color="rgb(52.864075%, 61.442566%, 89.962769%)" offset="0.308594"/><stop stop-opacity="1" stop-color="rgb(53.137207%, 61.231995%, 89.967346%)" offset="0.3125"/><stop stop-opacity="1" stop-color="rgb(53.410339%, 61.019897%, 89.970398%)" offset="0.316406"/><stop stop-opacity="1" stop-color="rgb(53.683472%, 60.809326%, 89.97345%)" offset="0.320312"/><stop stop-opacity="1" stop-color="rgb(53.955078%, 60.597229%, 89.976501%)" offset="0.324219"/><stop stop-opacity="1" stop-color="rgb(54.22821%, 60.386658%, 89.981079%)" offset="0.328125"/><stop stop-opacity="1" stop-color="rgb(54.501343%, 60.174561%, 89.984131%)" offset="0.332031"/><stop stop-opacity="1" stop-color="rgb(54.774475%, 59.963989%, 89.987183%)" offset="0.335938"/><stop stop-opacity="1" stop-color="rgb(55.047607%, 59.751892%, 89.990234%)" offset="0.339844"/><stop stop-opacity="1" stop-color="rgb(55.32074%, 59.541321%, 89.994812%)" offset="0.34375"/><stop stop-opacity="1" stop-color="rgb(55.593872%, 59.33075%, 89.997864%)" offset="0.347656"/><stop stop-opacity="1" stop-color="rgb(55.867004%, 59.120178%, 90.000916%)" offset="0.351563"/><stop stop-opacity="1" stop-color="rgb(56.140137%, 58.908081%, 90.003967%)" offset="0.355469"/><stop stop-opacity="1" stop-color="rgb(56.413269%, 58.69751%, 90.008545%)" offset="0.359375"/><stop stop-opacity="1" stop-color="rgb(56.686401%, 58.485413%, 90.011597%)" offset="0.363281"/><stop stop-opacity="1" stop-color="rgb(56.959534%, 58.274841%, 90.014648%)" offset="0.367188"/><stop stop-opacity="1" stop-color="rgb(57.23114%, 58.062744%, 90.0177%)" offset="0.371094"/><stop stop-opacity="1" stop-color="rgb(57.504272%, 57.852173%, 90.022278%)" offset="0.375"/><stop stop-opacity="1" stop-color="rgb(57.777405%, 57.640076%, 90.02533%)" offset="0.378906"/><stop stop-opacity="1" stop-color="rgb(58.050537%, 57.429504%, 90.029907%)" offset="0.382813"/><stop stop-opacity="1" stop-color="rgb(58.323669%, 57.217407%, 90.032959%)" offset="0.386719"/><stop stop-opacity="1" stop-color="rgb(58.596802%, 57.006836%, 90.036011%)" offset="0.390625"/><stop stop-opacity="1" stop-color="rgb(58.869934%, 56.794739%, 90.039062%)" offset="0.394531"/><stop stop-opacity="1" stop-color="rgb(59.143066%, 56.584167%, 90.04364%)" offset="0.398438"/><stop stop-opacity="1" stop-color="rgb(59.416199%, 56.37207%, 90.046692%)" offset="0.402344"/><stop stop-opacity="1" stop-color="rgb(59.689331%, 56.161499%, 90.049744%)" offset="0.40625"/><stop stop-opacity="1" stop-color="rgb(59.962463%, 55.949402%, 90.052795%)" offset="0.410156"/><stop stop-opacity="1" stop-color="rgb(60.235596%, 55.738831%, 90.057373%)" offset="0.414062"/><stop stop-opacity="1" stop-color="rgb(60.507202%, 55.526733%, 90.060425%)" offset="0.417969"/><stop stop-opacity="1" stop-color="rgb(60.780334%, 55.316162%, 90.063477%)" offset="0.421875"/><stop stop-opacity="1" stop-color="rgb(61.053467%, 55.104065%, 90.066528%)" offset="0.425781"/><stop stop-opacity="1" stop-color="rgb(61.326599%, 54.893494%, 90.071106%)" offset="0.429688"/><stop stop-opacity="1" stop-color="rgb(61.599731%, 54.681396%, 90.074158%)" offset="0.433594"/><stop stop-opacity="1" stop-color="rgb(61.872864%, 54.470825%, 90.077209%)" offset="0.4375"/><stop stop-opacity="1" stop-color="rgb(62.145996%, 54.258728%, 90.080261%)" offset="0.441406"/><stop stop-opacity="1" stop-color="rgb(62.419128%, 54.048157%, 90.084839%)" offset="0.445312"/><stop stop-opacity="1" stop-color="rgb(62.692261%, 53.837585%, 90.087891%)" offset="0.449219"/><stop stop-opacity="1" stop-color="rgb(62.965393%, 53.627014%, 90.092468%)" offset="0.453125"/><stop stop-opacity="1" stop-color="rgb(63.238525%, 53.414917%, 90.09552%)" offset="0.457031"/><stop stop-opacity="1" stop-color="rgb(63.511658%, 53.204346%, 90.098572%)" offset="0.460937"/><stop stop-opacity="1" stop-color="rgb(63.783264%, 52.992249%, 90.101624%)" offset="0.464844"/><stop stop-opacity="1" stop-color="rgb(64.056396%, 52.781677%, 90.106201%)" offset="0.46875"/><stop stop-opacity="1" stop-color="rgb(64.329529%, 52.56958%, 90.109253%)" offset="0.472656"/><stop stop-opacity="1" stop-color="rgb(64.602661%, 52.359009%, 90.112305%)" offset="0.476562"/><stop stop-opacity="1" stop-color="rgb(64.875793%, 52.146912%, 90.115356%)" offset="0.480469"/><stop stop-opacity="1" stop-color="rgb(65.148926%, 51.93634%, 90.119934%)" offset="0.484375"/><stop stop-opacity="1" stop-color="rgb(65.422058%, 51.724243%, 90.122986%)" offset="0.488281"/><stop stop-opacity="1" stop-color="rgb(65.69519%, 51.513672%, 90.126038%)" offset="0.492187"/><stop stop-opacity="1" stop-color="rgb(65.968323%, 51.301575%, 90.129089%)" offset="0.496094"/><stop stop-opacity="1" stop-color="rgb(66.241455%, 51.091003%, 90.133667%)" offset="0.5"/><stop stop-opacity="1" stop-color="rgb(66.514587%, 50.878906%, 90.136719%)" offset="0.503906"/><stop stop-opacity="1" stop-color="rgb(66.78772%, 50.668335%, 90.139771%)" offset="0.507812"/><stop stop-opacity="1" stop-color="rgb(67.060852%, 50.456238%, 90.142822%)" offset="0.511719"/><stop stop-opacity="1" stop-color="rgb(67.333984%, 50.245667%, 90.1474%)" offset="0.515625"/><stop stop-opacity="1" stop-color="rgb(67.605591%, 50.033569%, 90.150452%)" offset="0.519531"/><stop stop-opacity="1" stop-color="rgb(67.878723%, 49.822998%, 90.155029%)" offset="0.523438"/><stop stop-opacity="1" stop-color="rgb(68.151855%, 49.610901%, 90.158081%)" offset="0.527344"/><stop stop-opacity="1" stop-color="rgb(68.424988%, 49.40033%, 90.161133%)" offset="0.53125"/><stop stop-opacity="1" stop-color="rgb(68.69812%, 49.188232%, 90.164185%)" offset="0.535156"/><stop stop-opacity="1" stop-color="rgb(68.971252%, 48.977661%, 90.168762%)" offset="0.539062"/><stop stop-opacity="1" stop-color="rgb(69.244385%, 48.765564%, 90.171814%)" offset="0.542969"/><stop stop-opacity="1" stop-color="rgb(69.517517%, 48.554993%, 90.174866%)" offset="0.546875"/><stop stop-opacity="1" stop-color="rgb(69.790649%, 48.342896%, 90.177917%)" offset="0.550781"/><stop stop-opacity="1" stop-color="rgb(70.063782%, 48.132324%, 90.182495%)" offset="0.554687"/><stop stop-opacity="1" stop-color="rgb(70.336914%, 47.921753%, 90.185547%)" offset="0.558594"/><stop stop-opacity="1" stop-color="rgb(70.610046%, 47.711182%, 90.188599%)" offset="0.5625"/><stop stop-opacity="1" stop-color="rgb(70.881653%, 47.499084%, 90.19165%)" offset="0.566406"/><stop stop-opacity="1" stop-color="rgb(71.154785%, 47.288513%, 90.196228%)" offset="0.570312"/><stop stop-opacity="1" stop-color="rgb(71.366882%, 47.134399%, 89.924622%)" offset="0.574219"/><stop stop-opacity="1" stop-color="rgb(71.578979%, 46.980286%, 89.654541%)" offset="0.578125"/><stop stop-opacity="1" stop-color="rgb(71.740723%, 46.871948%, 89.163208%)" offset="0.582031"/><stop stop-opacity="1" stop-color="rgb(71.902466%, 46.765137%, 88.671875%)" offset="0.585937"/><stop stop-opacity="1" stop-color="rgb(72.064209%, 46.658325%, 88.179016%)" offset="0.589844"/><stop stop-opacity="1" stop-color="rgb(72.225952%, 46.551514%, 87.687683%)" offset="0.59375"/><stop stop-opacity="1" stop-color="rgb(72.387695%, 46.443176%, 87.19635%)" offset="0.597656"/><stop stop-opacity="1" stop-color="rgb(72.550964%, 46.336365%, 86.705017%)" offset="0.601562"/><stop stop-opacity="1" stop-color="rgb(72.712708%, 46.228027%, 86.213684%)" offset="0.605469"/><stop stop-opacity="1" stop-color="rgb(72.874451%, 46.121216%, 85.722351%)" offset="0.609375"/><stop stop-opacity="1" stop-color="rgb(73.036194%, 46.012878%, 85.229492%)" offset="0.613281"/><stop stop-opacity="1" stop-color="rgb(73.197937%, 45.906067%, 84.738159%)" offset="0.617188"/><stop stop-opacity="1" stop-color="rgb(73.35968%, 45.799255%, 84.246826%)" offset="0.621094"/><stop stop-opacity="1" stop-color="rgb(73.522949%, 45.692444%, 83.755493%)" offset="0.625"/><stop stop-opacity="1" stop-color="rgb(73.684692%, 45.584106%, 83.262634%)" offset="0.628906"/><stop stop-opacity="1" stop-color="rgb(73.846436%, 45.477295%, 82.771301%)" offset="0.632812"/><stop stop-opacity="1" stop-color="rgb(74.008179%, 45.368958%, 82.279968%)" offset="0.636719"/><stop stop-opacity="1" stop-color="rgb(74.169922%, 45.262146%, 81.788635%)" offset="0.640625"/><stop stop-opacity="1" stop-color="rgb(74.331665%, 45.153809%, 81.295776%)" offset="0.644531"/><stop stop-opacity="1" stop-color="rgb(74.494934%, 45.046997%, 80.804443%)" offset="0.648438"/><stop stop-opacity="1" stop-color="rgb(74.656677%, 44.940186%, 80.31311%)" offset="0.652344"/><stop stop-opacity="1" stop-color="rgb(74.81842%, 44.833374%, 79.821777%)" offset="0.65625"/><stop stop-opacity="1" stop-color="rgb(74.980164%, 44.725037%, 79.330444%)" offset="0.660156"/><stop stop-opacity="1" stop-color="rgb(75.141907%, 44.618225%, 78.839111%)" offset="0.664062"/><stop stop-opacity="1" stop-color="rgb(75.30365%, 44.509888%, 78.346252%)" offset="0.667969"/><stop stop-opacity="1" stop-color="rgb(75.466919%, 44.403076%, 77.854919%)" offset="0.671875"/><stop stop-opacity="1" stop-color="rgb(75.628662%, 44.294739%, 77.363586%)" offset="0.675781"/><stop stop-opacity="1" stop-color="rgb(75.790405%, 44.187927%, 76.872253%)" offset="0.679688"/><stop stop-opacity="1" stop-color="rgb(75.952148%, 44.081116%, 76.379395%)" offset="0.683594"/><stop stop-opacity="1" stop-color="rgb(76.115417%, 43.974304%, 75.888062%)" offset="0.6875"/><stop stop-opacity="1" stop-color="rgb(76.277161%, 43.865967%, 75.396729%)" offset="0.691406"/><stop stop-opacity="1" stop-color="rgb(76.438904%, 43.759155%, 74.905396%)" offset="0.695312"/><stop stop-opacity="1" stop-color="rgb(76.600647%, 43.650818%, 74.412537%)" offset="0.699219"/><stop stop-opacity="1" stop-color="rgb(76.76239%, 43.544006%, 73.921204%)" offset="0.703125"/><stop stop-opacity="1" stop-color="rgb(76.924133%, 43.437195%, 73.429871%)" offset="0.707031"/><stop stop-opacity="1" stop-color="rgb(77.087402%, 43.330383%, 72.938538%)" offset="0.710938"/><stop stop-opacity="1" stop-color="rgb(77.249146%, 43.222046%, 72.445679%)" offset="0.714844"/><stop stop-opacity="1" stop-color="rgb(77.410889%, 43.115234%, 71.954346%)" offset="0.71875"/><stop stop-opacity="1" stop-color="rgb(77.572632%, 43.006897%, 71.463013%)" offset="0.722656"/><stop stop-opacity="1" stop-color="rgb(77.734375%, 42.900085%, 70.97168%)" offset="0.726563"/><stop stop-opacity="1" stop-color="rgb(77.896118%, 42.791748%, 70.480347%)" offset="0.730469"/><stop stop-opacity="1" stop-color="rgb(78.059387%, 42.684937%, 69.989014%)" offset="0.734375"/><stop stop-opacity="1" stop-color="rgb(78.22113%, 42.578125%, 69.496155%)" offset="0.738281"/><stop stop-opacity="1" stop-color="rgb(78.382874%, 42.471313%, 69.004822%)" offset="0.742188"/><stop stop-opacity="1" stop-color="rgb(78.544617%, 42.362976%, 68.513489%)" offset="0.746094"/><stop stop-opacity="1" stop-color="rgb(78.70636%, 42.256165%, 68.022156%)" offset="0.75"/><stop stop-opacity="1" stop-color="rgb(78.868103%, 42.147827%, 67.529297%)" offset="0.753906"/><stop stop-opacity="1" stop-color="rgb(79.031372%, 42.041016%, 67.037964%)" offset="0.757813"/><stop stop-opacity="1" stop-color="rgb(79.193115%, 41.932678%, 66.546631%)" offset="0.761719"/><stop stop-opacity="1" stop-color="rgb(79.354858%, 41.825867%, 66.055298%)" offset="0.765625"/><stop stop-opacity="1" stop-color="rgb(79.516602%, 41.719055%, 65.562439%)" offset="0.769531"/><stop stop-opacity="1" stop-color="rgb(79.678345%, 41.612244%, 65.071106%)" offset="0.773438"/><stop stop-opacity="1" stop-color="rgb(79.840088%, 41.503906%, 64.579773%)" offset="0.777344"/><stop stop-opacity="1" stop-color="rgb(80.003357%, 41.397095%, 64.08844%)" offset="0.78125"/><stop stop-opacity="1" stop-color="rgb(80.1651%, 41.288757%, 63.597107%)" offset="0.785156"/><stop stop-opacity="1" stop-color="rgb(80.326843%, 41.181946%, 63.105774%)" offset="0.789063"/><stop stop-opacity="1" stop-color="rgb(80.488586%, 41.073608%, 62.612915%)" offset="0.792969"/><stop stop-opacity="1" stop-color="rgb(80.65033%, 40.966797%, 62.121582%)" offset="0.796875"/><stop stop-opacity="1" stop-color="rgb(80.812073%, 40.859985%, 61.630249%)" offset="0.800781"/><stop stop-opacity="1" stop-color="rgb(80.975342%, 40.753174%, 61.138916%)" offset="0.804688"/><stop stop-opacity="1" stop-color="rgb(81.137085%, 40.644836%, 60.646057%)" offset="0.808594"/><stop stop-opacity="1" stop-color="rgb(81.298828%, 40.538025%, 60.154724%)" offset="0.8125"/><stop stop-opacity="1" stop-color="rgb(81.460571%, 40.429688%, 59.663391%)" offset="0.816406"/><stop stop-opacity="1" stop-color="rgb(81.622314%, 40.322876%, 59.172058%)" offset="0.820312"/><stop stop-opacity="1" stop-color="rgb(81.784058%, 40.214539%, 58.679199%)" offset="0.824219"/><stop stop-opacity="1" stop-color="rgb(81.947327%, 40.107727%, 58.187866%)" offset="0.828125"/><stop stop-opacity="1" stop-color="rgb(82.10907%, 40.000916%, 57.696533%)" offset="0.832031"/><stop stop-opacity="1" stop-color="rgb(82.270813%, 39.894104%, 57.2052%)" offset="0.835938"/><stop stop-opacity="1" stop-color="rgb(82.432556%, 39.785767%, 56.712341%)" offset="0.839844"/><stop stop-opacity="1" stop-color="rgb(82.594299%, 39.678955%, 56.221008%)" offset="0.84375"/><stop stop-opacity="1" stop-color="rgb(82.756042%, 39.570618%, 55.729675%)" offset="0.847656"/><stop stop-opacity="1" stop-color="rgb(82.919312%, 39.463806%, 55.238342%)" offset="0.851562"/><stop stop-opacity="1" stop-color="rgb(83.081055%, 39.355469%, 54.747009%)" offset="0.855469"/><stop stop-opacity="1" stop-color="rgb(83.242798%, 39.248657%, 54.255676%)" offset="0.859375"/><stop stop-opacity="1" stop-color="rgb(83.404541%, 39.141846%, 53.762817%)" offset="0.863281"/><stop stop-opacity="1" stop-color="rgb(83.566284%, 39.035034%, 53.271484%)" offset="0.867188"/><stop stop-opacity="1" stop-color="rgb(83.728027%, 38.926697%, 52.780151%)" offset="0.871094"/><stop stop-opacity="1" stop-color="rgb(83.891296%, 38.819885%, 52.288818%)" offset="0.875"/><stop stop-opacity="1" stop-color="rgb(84.05304%, 38.711548%, 51.795959%)" offset="0.878906"/><stop stop-opacity="1" stop-color="rgb(84.214783%, 38.604736%, 51.304626%)" offset="0.882812"/><stop stop-opacity="1" stop-color="rgb(84.376526%, 38.497925%, 50.813293%)" offset="0.886719"/><stop stop-opacity="1" stop-color="rgb(84.538269%, 38.391113%, 50.32196%)" offset="0.890625"/><stop stop-opacity="1" stop-color="rgb(84.700012%, 38.282776%, 49.829102%)" offset="0.894531"/><stop stop-opacity="1" stop-color="rgb(84.863281%, 38.175964%, 49.337769%)" offset="0.898437"/><stop stop-opacity="1" stop-color="rgb(85.025024%, 38.067627%, 48.846436%)" offset="0.902344"/><stop stop-opacity="1" stop-color="rgb(85.186768%, 37.960815%, 48.355103%)" offset="0.90625"/><stop stop-opacity="1" stop-color="rgb(85.348511%, 37.852478%, 47.86377%)" offset="0.910156"/><stop stop-opacity="1" stop-color="rgb(85.510254%, 37.745667%, 47.372437%)" offset="0.914062"/><stop stop-opacity="1" stop-color="rgb(85.671997%, 37.638855%, 46.879578%)" offset="0.917969"/><stop stop-opacity="1" stop-color="rgb(85.835266%, 37.532043%, 46.388245%)" offset="0.921875"/><stop stop-opacity="1" stop-color="rgb(85.997009%, 37.423706%, 45.896912%)" offset="0.925781"/><stop stop-opacity="1" stop-color="rgb(86.158752%, 37.316895%, 45.405579%)" offset="0.929688"/><stop stop-opacity="1" stop-color="rgb(86.320496%, 37.208557%, 44.91272%)" offset="0.933594"/><stop stop-opacity="1" stop-color="rgb(86.483765%, 37.101746%, 44.421387%)" offset="0.9375"/><stop stop-opacity="1" stop-color="rgb(86.645508%, 36.993408%, 43.930054%)" offset="0.941406"/><stop stop-opacity="1" stop-color="rgb(86.807251%, 36.886597%, 43.438721%)" offset="0.945312"/><stop stop-opacity="1" stop-color="rgb(86.968994%, 36.779785%, 42.945862%)" offset="0.949219"/><stop stop-opacity="1" stop-color="rgb(87.130737%, 36.672974%, 42.454529%)" offset="0.953125"/><stop stop-opacity="1" stop-color="rgb(87.29248%, 36.564636%, 41.963196%)" offset="0.957031"/><stop stop-opacity="1" stop-color="rgb(87.45575%, 36.457825%, 41.471863%)" offset="0.960938"/><stop stop-opacity="1" stop-color="rgb(87.617493%, 36.349487%, 40.979004%)" offset="0.964844"/><stop stop-opacity="1" stop-color="rgb(87.779236%, 36.242676%, 40.487671%)" offset="0.96875"/><stop stop-opacity="1" stop-color="rgb(87.940979%, 36.134338%, 39.996338%)" offset="0.972656"/><stop stop-opacity="1" stop-color="rgb(88.102722%, 36.027527%, 39.505005%)" offset="0.976562"/><stop stop-opacity="1" stop-color="rgb(88.264465%, 35.920715%, 39.013672%)" offset="0.980469"/><stop stop-opacity="1" stop-color="rgb(88.427734%, 35.813904%, 38.522339%)" offset="0.984375"/><stop stop-opacity="1" stop-color="rgb(88.513184%, 35.75592%, 38.259888%)" offset="0.988281"/><stop stop-opacity="1" stop-color="rgb(88.598633%, 35.699463%, 37.998962%)" offset="0.992187"/><stop stop-opacity="1" stop-color="rgb(88.598633%, 35.699463%, 37.998962%)" offset="1"/></linearGradient></defs><g clip-path="url(#7b1e65274d)"><g clip-path="url(#5d9187a5cc)"><path fill="url(#f309d4cc3d)" d="M 5.027344 12.257812 L 5.027344 140.507812 L 145.222656 140.507812 L 145.222656 12.257812 Z M 5.027344 12.257812 " fill-rule="nonzero"/></g></g></svg>