<svg xmlns="http://www.w3.org/2000/svg" xmlns:xlink="http://www.w3.org/1999/xlink" width="200" zoomAndPan="magnify" viewBox="0 0 150 149.999998" height="200" preserveAspectRatio="xMidYMid meet" version="1.0"><defs><clipPath id="36b9290616"><path d="M 7.75 4 L 143.5 4 L 143.5 139.75 L 7.75 139.75 Z M 7.75 4 " clip-rule="nonzero"/></clipPath></defs><path fill="#e9f1f2" d="M 132.1875 6.261719 L 59.789062 6.261719 C 54.789062 6.261719 50.738281 10.316406 50.738281 15.3125 L 50.738281 128.4375 C 50.738281 133.433594 54.789062 137.488281 59.789062 137.488281 L 132.1875 137.488281 C 137.183594 137.488281 141.238281 133.433594 141.238281 128.4375 L 141.238281 15.3125 C 141.238281 10.316406 137.183594 6.261719 132.1875 6.261719 Z M 132.1875 6.261719 " fill-opacity="1" fill-rule="nonzero"/><path fill="#a2bdcd" d="M 59.789062 15.3125 L 132.1875 15.3125 L 132.1875 128.4375 L 59.789062 128.4375 Z M 59.789062 15.3125 " fill-opacity="1" fill-rule="nonzero"/><path fill="#f47c94" d="M 89.199219 44.726562 C 89.199219 45.320312 89.140625 45.90625 89.027344 46.492188 C 88.910156 47.074219 88.738281 47.640625 88.511719 48.1875 C 88.285156 48.738281 88.003906 49.257812 87.675781 49.753906 C 87.34375 50.246094 86.96875 50.703125 86.550781 51.125 C 86.128906 51.542969 85.671875 51.917969 85.179688 52.25 C 84.683594 52.578125 84.164062 52.859375 83.613281 53.085938 C 83.0625 53.3125 82.5 53.484375 81.914062 53.601562 C 81.332031 53.71875 80.746094 53.773438 80.148438 53.773438 C 79.554688 53.773438 78.96875 53.71875 78.382812 53.601562 C 77.800781 53.484375 77.234375 53.3125 76.6875 53.085938 C 76.136719 52.859375 75.617188 52.578125 75.121094 52.25 C 74.628906 51.917969 74.171875 51.542969 73.75 51.125 C 73.332031 50.703125 72.957031 50.246094 72.625 49.753906 C 72.296875 49.257812 72.015625 48.738281 71.789062 48.1875 C 71.5625 47.640625 71.390625 47.074219 71.273438 46.492188 C 71.15625 45.90625 71.101562 45.320312 71.101562 44.726562 C 71.101562 44.128906 71.15625 43.542969 71.273438 42.960938 C 71.390625 42.375 71.5625 41.8125 71.789062 41.261719 C 72.015625 40.710938 72.296875 40.191406 72.625 39.695312 C 72.957031 39.203125 73.332031 38.746094 73.75 38.324219 C 74.171875 37.90625 74.628906 37.53125 75.121094 37.199219 C 75.617188 36.871094 76.136719 36.589844 76.6875 36.363281 C 77.234375 36.136719 77.800781 35.964844 78.382812 35.847656 C 78.96875 35.734375 79.554688 35.675781 80.148438 35.675781 C 80.746094 35.675781 81.332031 35.734375 81.914062 35.847656 C 82.5 35.964844 83.0625 36.136719 83.613281 36.363281 C 84.164062 36.589844 84.683594 36.871094 85.179688 37.199219 C 85.671875 37.53125 86.128906 37.90625 86.550781 38.324219 C 86.96875 38.746094 87.34375 39.203125 87.675781 39.695312 C 88.003906 40.191406 88.285156 40.710938 88.511719 41.261719 C 88.738281 41.8125 88.910156 42.375 89.027344 42.960938 C 89.140625 43.542969 89.199219 44.128906 89.199219 44.726562 Z M 89.199219 44.726562 " fill-opacity="1" fill-rule="nonzero"/><path fill="#f47c94" d="M 89.199219 71.875 C 89.199219 72.46875 89.140625 73.058594 89.027344 73.640625 C 88.910156 74.222656 88.738281 74.789062 88.511719 75.339844 C 88.285156 75.886719 88.003906 76.410156 87.675781 76.902344 C 87.34375 77.398438 86.96875 77.855469 86.550781 78.273438 C 86.128906 78.695312 85.671875 79.070312 85.179688 79.398438 C 84.683594 79.730469 84.164062 80.007812 83.613281 80.234375 C 83.0625 80.464844 82.5 80.636719 81.914062 80.75 C 81.332031 80.867188 80.746094 80.925781 80.148438 80.925781 C 79.554688 80.925781 78.96875 80.867188 78.382812 80.75 C 77.800781 80.636719 77.234375 80.464844 76.6875 80.234375 C 76.136719 80.007812 75.617188 79.730469 75.121094 79.398438 C 74.628906 79.070312 74.171875 78.695312 73.75 78.273438 C 73.332031 77.855469 72.957031 77.398438 72.625 76.902344 C 72.296875 76.410156 72.015625 75.886719 71.789062 75.339844 C 71.5625 74.789062 71.390625 74.222656 71.273438 73.640625 C 71.15625 73.058594 71.101562 72.46875 71.101562 71.875 C 71.101562 71.28125 71.15625 70.691406 71.273438 70.109375 C 71.390625 69.527344 71.5625 68.960938 71.789062 68.410156 C 72.015625 67.863281 72.296875 67.339844 72.625 66.847656 C 72.957031 66.351562 73.332031 65.894531 73.75 65.476562 C 74.171875 65.054688 74.628906 64.679688 75.121094 64.351562 C 75.617188 64.019531 76.136719 63.742188 76.6875 63.515625 C 77.234375 63.285156 77.800781 63.113281 78.382812 63 C 78.96875 62.882812 79.554688 62.824219 80.148438 62.824219 C 80.746094 62.824219 81.332031 62.882812 81.914062 63 C 82.5 63.113281 83.0625 63.285156 83.613281 63.515625 C 84.164062 63.742188 84.683594 64.019531 85.179688 64.351562 C 85.671875 64.679688 86.128906 65.054688 86.550781 65.476562 C 86.96875 65.894531 87.34375 66.351562 87.675781 66.847656 C 88.003906 67.339844 88.285156 67.863281 88.511719 68.410156 C 88.738281 68.960938 88.910156 69.527344 89.027344 70.109375 C 89.140625 70.691406 89.199219 71.28125 89.199219 71.875 Z M 89.199219 71.875 " fill-opacity="1" fill-rule="nonzero"/><path fill="#f15574" d="M 89.199219 99.023438 C 89.199219 99.621094 89.140625 100.207031 89.027344 100.789062 C 88.910156 101.375 88.738281 101.9375 88.511719 102.488281 C 88.285156 103.039062 88.003906 103.558594 87.675781 104.054688 C 87.34375 104.546875 86.96875 105.003906 86.550781 105.425781 C 86.128906 105.84375 85.671875 106.21875 85.179688 106.550781 C 84.683594 106.878906 84.164062 107.160156 83.613281 107.386719 C 83.0625 107.613281 82.5 107.785156 81.914062 107.902344 C 81.332031 108.015625 80.746094 108.074219 80.148438 108.074219 C 79.554688 108.074219 78.96875 108.015625 78.382812 107.902344 C 77.800781 107.785156 77.234375 107.613281 76.6875 107.386719 C 76.136719 107.160156 75.617188 106.878906 75.121094 106.550781 C 74.628906 106.21875 74.171875 105.84375 73.75 105.425781 C 73.332031 105.003906 72.957031 104.546875 72.625 104.054688 C 72.296875 103.558594 72.015625 103.039062 71.789062 102.488281 C 71.5625 101.9375 71.390625 101.375 71.273438 100.789062 C 71.15625 100.207031 71.101562 99.621094 71.101562 99.023438 C 71.101562 98.429688 71.15625 97.84375 71.273438 97.257812 C 71.390625 96.675781 71.5625 96.109375 71.789062 95.5625 C 72.015625 95.011719 72.296875 94.492188 72.625 93.996094 C 72.957031 93.503906 73.332031 93.046875 73.75 92.625 C 74.171875 92.207031 74.628906 91.832031 75.121094 91.5 C 75.617188 91.171875 76.136719 90.890625 76.6875 90.664062 C 77.234375 90.4375 77.800781 90.265625 78.382812 90.148438 C 78.96875 90.03125 79.554688 89.976562 80.148438 89.976562 C 80.746094 89.976562 81.332031 90.03125 81.914062 90.148438 C 82.5 90.265625 83.0625 90.4375 83.613281 90.664062 C 84.164062 90.890625 84.683594 91.171875 85.179688 91.5 C 85.671875 91.832031 86.128906 92.207031 86.550781 92.625 C 86.96875 93.046875 87.34375 93.503906 87.675781 93.996094 C 88.003906 94.492188 88.285156 95.011719 88.511719 95.5625 C 88.738281 96.109375 88.910156 96.675781 89.027344 97.257812 C 89.140625 97.84375 89.199219 98.429688 89.199219 99.023438 Z M 89.199219 99.023438 " fill-opacity="1" fill-rule="nonzero"/><path fill="#ffc857" d="M 10.011719 42.460938 L 41.6875 42.460938 L 41.6875 74.136719 L 10.011719 74.136719 Z M 10.011719 42.460938 " fill-opacity="1" fill-rule="nonzero"/><path fill="#ffdd99" d="M 21.324219 42.460938 L 30.375 42.460938 L 30.375 51.511719 L 21.324219 51.511719 Z M 21.324219 42.460938 " fill-opacity="1" fill-rule="nonzero"/><path fill="#ffc857" d="M 10.011719 74.136719 L 41.6875 74.136719 L 41.6875 105.8125 L 10.011719 105.8125 Z M 10.011719 74.136719 " fill-opacity="1" fill-rule="nonzero"/><path fill="#ffdd99" d="M 21.324219 74.136719 L 30.375 74.136719 L 30.375 83.1875 L 21.324219 83.1875 Z M 21.324219 74.136719 " fill-opacity="1" fill-rule="nonzero"/><path fill="#ffc857" d="M 10.011719 105.8125 L 41.6875 105.8125 L 41.6875 137.488281 L 10.011719 137.488281 Z M 10.011719 105.8125 " fill-opacity="1" fill-rule="nonzero"/><path fill="#ffdd99" d="M 21.324219 105.8125 L 30.375 105.8125 L 30.375 114.863281 L 21.324219 114.863281 Z M 21.324219 105.8125 " fill-opacity="1" fill-rule="nonzero"/><path fill="#ffc857" d="M 41.6875 74.136719 L 73.363281 74.136719 L 73.363281 105.8125 L 41.6875 105.8125 Z M 41.6875 74.136719 " fill-opacity="1" fill-rule="nonzero"/><path fill="#ffdd99" d="M 53 74.136719 L 62.050781 74.136719 L 62.050781 83.1875 L 53 83.1875 Z M 53 74.136719 " fill-opacity="1" fill-rule="nonzero"/><path fill="#ffc857" d="M 41.6875 105.8125 L 73.363281 105.8125 L 73.363281 137.488281 L 41.6875 137.488281 Z M 41.6875 105.8125 " fill-opacity="1" fill-rule="nonzero"/><path fill="#ffdd99" d="M 53 105.8125 L 62.050781 105.8125 L 62.050781 114.863281 L 53 114.863281 Z M 53 105.8125 " fill-opacity="1" fill-rule="nonzero"/><path fill="#ffc857" d="M 73.363281 105.8125 L 105.039062 105.8125 L 105.039062 137.488281 L 73.363281 137.488281 Z M 73.363281 105.8125 " fill-opacity="1" fill-rule="nonzero"/><path fill="#ffdd99" d="M 84.675781 105.8125 L 93.726562 105.8125 L 93.726562 114.863281 L 84.675781 114.863281 Z M 84.675781 105.8125 " fill-opacity="1" fill-rule="nonzero"/><g clip-path="url(#36b9290616)"><path fill="#464a51" d="M 132.1875 4 L 59.789062 4 C 53.550781 4 48.476562 9.074219 48.476562 15.3125 L 48.476562 71.875 L 43.949219 71.875 L 43.949219 42.460938 C 43.949219 41.214844 42.9375 40.199219 41.6875 40.199219 L 10.011719 40.199219 C 8.761719 40.199219 7.75 41.214844 7.75 42.460938 L 7.75 137.488281 C 7.75 138.738281 8.761719 139.75 10.011719 139.75 L 132.1875 139.75 C 138.425781 139.75 143.5 134.675781 143.5 128.4375 L 143.5 15.3125 C 143.5 9.074219 138.425781 4 132.1875 4 Z M 107.300781 108.074219 L 120.875 108.074219 C 122.125 108.074219 123.136719 107.0625 123.136719 105.8125 C 123.136719 104.5625 122.125 103.550781 120.875 103.550781 L 90.492188 103.550781 C 91.121094 102.132812 91.460938 100.597656 91.460938 99.023438 C 91.460938 97.519531 91.152344 96.082031 90.617188 94.765625 L 94.980469 91.855469 C 96.019531 91.164062 96.300781 89.761719 95.605469 88.71875 C 94.914062 87.679688 93.511719 87.394531 92.46875 88.09375 L 88.105469 91 C 86.0625 88.96875 83.25 87.710938 80.148438 87.710938 C 78.578125 87.710938 77.042969 88.054688 75.625 88.683594 L 75.625 82.214844 C 77.042969 82.847656 78.578125 83.1875 80.148438 83.1875 C 86.386719 83.1875 91.460938 78.113281 91.460938 71.875 C 91.460938 70.367188 91.152344 68.933594 90.617188 67.617188 L 94.980469 64.707031 C 96.019531 64.015625 96.300781 62.609375 95.605469 61.570312 C 94.914062 60.527344 93.511719 60.246094 92.46875 60.941406 L 88.105469 63.851562 C 86.0625 61.820312 83.25 60.5625 80.148438 60.5625 C 77.277344 60.5625 74.679688 61.671875 72.679688 63.445312 L 72.457031 63.277344 C 71.457031 62.527344 70.039062 62.730469 69.289062 63.730469 C 68.539062 64.730469 68.742188 66.148438 69.742188 66.898438 L 69.957031 67.058594 C 69.257812 68.523438 68.835938 70.144531 68.835938 71.875 L 62.050781 71.875 L 62.050781 17.574219 L 129.925781 17.574219 L 129.925781 126.175781 L 107.300781 126.175781 Z M 73.699219 69.867188 L 78.792969 73.683594 C 79.191406 73.984375 79.671875 74.136719 80.148438 74.136719 C 80.585938 74.136719 81.023438 74.011719 81.40625 73.757812 L 86.710938 70.222656 C 86.84375 70.753906 86.9375 71.300781 86.9375 71.875 C 86.9375 75.617188 83.890625 78.664062 80.148438 78.664062 C 78.449219 78.664062 76.878906 77.996094 75.625 76.835938 L 75.625 74.136719 C 75.625 72.886719 74.613281 71.875 73.363281 71.875 C 73.363281 71.171875 73.5 70.503906 73.699219 69.867188 Z M 76.390625 66.226562 C 77.46875 65.511719 78.761719 65.085938 80.148438 65.085938 C 81.671875 65.085938 83.0625 65.609375 84.199219 66.457031 L 80.230469 69.105469 Z M 75.625 98.460938 L 78.792969 100.835938 C 79.191406 101.136719 79.671875 101.289062 80.148438 101.289062 C 80.585938 101.289062 81.023438 101.160156 81.40625 100.90625 L 86.710938 97.371094 C 86.84375 97.902344 86.9375 98.449219 86.9375 99.023438 C 86.9375 100.726562 86.273438 102.292969 85.113281 103.550781 L 75.625 103.550781 Z M 76.429688 93.40625 C 77.53125 92.660156 78.800781 92.238281 80.148438 92.238281 C 81.671875 92.238281 83.0625 92.757812 84.199219 93.609375 L 80.230469 96.253906 Z M 86.9375 108.074219 L 91.460938 108.074219 L 91.460938 112.601562 L 86.9375 112.601562 Z M 59.789062 76.398438 L 59.789062 80.925781 L 55.261719 80.925781 L 55.261719 76.398438 Z M 53 85.449219 L 62.050781 85.449219 C 63.300781 85.449219 64.3125 84.4375 64.3125 83.1875 L 64.3125 76.398438 L 71.101562 76.398438 L 71.101562 103.550781 L 43.949219 103.550781 L 43.949219 76.398438 L 50.738281 76.398438 L 50.738281 83.1875 C 50.738281 84.4375 51.75 85.449219 53 85.449219 Z M 55.261719 108.074219 L 59.789062 108.074219 L 59.789062 112.601562 L 55.261719 112.601562 Z M 23.585938 108.074219 L 28.113281 108.074219 L 28.113281 112.601562 L 23.585938 112.601562 Z M 12.273438 103.550781 L 12.273438 76.398438 L 19.0625 76.398438 L 19.0625 83.1875 C 19.0625 84.4375 20.074219 85.449219 21.324219 85.449219 L 30.375 85.449219 C 31.625 85.449219 32.636719 84.4375 32.636719 83.1875 L 32.636719 76.398438 L 39.425781 76.398438 L 39.425781 103.550781 Z M 23.585938 76.398438 L 28.113281 76.398438 L 28.113281 80.925781 L 23.585938 80.925781 Z M 28.113281 44.726562 L 28.113281 49.25 L 23.585938 49.25 L 23.585938 44.726562 Z M 12.273438 44.726562 L 19.0625 44.726562 L 19.0625 51.511719 C 19.0625 52.761719 20.074219 53.773438 21.324219 53.773438 L 30.375 53.773438 C 31.625 53.773438 32.636719 52.761719 32.636719 51.511719 L 32.636719 44.726562 L 39.425781 44.726562 L 39.425781 71.875 L 12.273438 71.875 Z M 12.273438 108.074219 L 19.0625 108.074219 L 19.0625 114.863281 C 19.0625 116.113281 20.074219 117.125 21.324219 117.125 L 30.375 117.125 C 31.625 117.125 32.636719 116.113281 32.636719 114.863281 L 32.636719 108.074219 L 39.425781 108.074219 L 39.425781 135.226562 L 12.273438 135.226562 Z M 43.949219 108.074219 L 50.738281 108.074219 L 50.738281 114.863281 C 50.738281 116.113281 51.75 117.125 53 117.125 L 62.050781 117.125 C 63.300781 117.125 64.3125 116.113281 64.3125 114.863281 L 64.3125 108.074219 L 71.101562 108.074219 L 71.101562 135.226562 L 43.949219 135.226562 Z M 75.625 108.074219 L 82.414062 108.074219 L 82.414062 114.863281 C 82.414062 116.113281 83.425781 117.125 84.675781 117.125 L 93.726562 117.125 C 94.972656 117.125 95.988281 116.113281 95.988281 114.863281 L 95.988281 108.074219 L 102.773438 108.074219 L 102.773438 135.226562 L 75.625 135.226562 Z M 138.976562 128.4375 C 138.976562 132.179688 135.929688 135.226562 132.1875 135.226562 L 107.300781 135.226562 L 107.300781 130.699219 L 132.1875 130.699219 C 133.4375 130.699219 134.449219 129.6875 134.449219 128.4375 L 134.449219 15.3125 C 134.449219 14.0625 133.4375 13.050781 132.1875 13.050781 L 59.789062 13.050781 C 58.539062 13.050781 57.523438 14.0625 57.523438 15.3125 L 57.523438 71.875 L 53 71.875 L 53 15.3125 C 53 11.570312 56.046875 8.523438 59.789062 8.523438 L 132.1875 8.523438 C 135.929688 8.523438 138.976562 11.570312 138.976562 15.3125 Z M 138.976562 128.4375 " fill-opacity="1" fill-rule="nonzero"/></g><path fill="#464a51" d="M 95.605469 34.417969 C 94.914062 33.378906 93.511719 33.097656 92.46875 33.792969 L 88.105469 36.699219 C 86.0625 34.671875 83.25 33.414062 80.148438 33.414062 C 77.277344 33.414062 74.679688 34.523438 72.679688 36.296875 L 72.457031 36.128906 C 71.457031 35.375 70.039062 35.582031 69.289062 36.578125 C 68.539062 37.578125 68.742188 39 69.742188 39.746094 L 69.957031 39.90625 C 69.257812 41.375 68.835938 42.996094 68.835938 44.726562 C 68.835938 50.960938 73.914062 56.039062 80.148438 56.039062 C 86.386719 56.039062 91.460938 50.960938 91.460938 44.726562 C 91.460938 43.21875 91.152344 41.785156 90.617188 40.46875 L 94.980469 37.558594 C 96.019531 36.863281 96.300781 35.460938 95.605469 34.417969 Z M 80.148438 37.9375 C 81.671875 37.9375 83.0625 38.457031 84.199219 39.308594 L 80.230469 41.957031 L 76.394531 39.078125 C 77.46875 38.359375 78.761719 37.9375 80.148438 37.9375 Z M 86.9375 44.726562 C 86.9375 48.46875 83.890625 51.511719 80.148438 51.511719 C 76.40625 51.511719 73.363281 48.46875 73.363281 44.726562 C 73.363281 44.019531 73.5 43.355469 73.699219 42.714844 L 78.792969 46.535156 C 79.191406 46.835938 79.671875 46.988281 80.148438 46.988281 C 80.585938 46.988281 81.023438 46.859375 81.40625 46.605469 L 86.710938 43.070312 C 86.84375 43.601562 86.9375 44.152344 86.9375 44.726562 Z M 86.9375 44.726562 " fill-opacity="1" fill-rule="nonzero"/><path fill="#464a51" d="M 120.875 49.25 L 95.988281 49.25 C 94.738281 49.25 93.726562 50.261719 93.726562 51.511719 C 93.726562 52.761719 94.738281 53.773438 95.988281 53.773438 L 120.875 53.773438 C 122.125 53.773438 123.136719 52.761719 123.136719 51.511719 C 123.136719 50.261719 122.125 49.25 120.875 49.25 Z M 120.875 49.25 " fill-opacity="1" fill-rule="nonzero"/><path fill="#464a51" d="M 120.875 76.398438 L 95.988281 76.398438 C 94.738281 76.398438 93.726562 77.414062 93.726562 78.664062 C 93.726562 79.910156 94.738281 80.925781 95.988281 80.925781 L 120.875 80.925781 C 122.125 80.925781 123.136719 79.910156 123.136719 78.664062 C 123.136719 77.414062 122.125 76.398438 120.875 76.398438 Z M 120.875 76.398438 " fill-opacity="1" fill-rule="nonzero"/><path fill="#464a51" d="M 120.875 40.199219 L 98.25 40.199219 C 97 40.199219 95.988281 41.214844 95.988281 42.460938 C 95.988281 43.710938 97 44.726562 98.25 44.726562 L 120.875 44.726562 C 122.125 44.726562 123.136719 43.710938 123.136719 42.460938 C 123.136719 41.214844 122.125 40.199219 120.875 40.199219 Z M 120.875 40.199219 " fill-opacity="1" fill-rule="nonzero"/><path fill="#464a51" d="M 120.875 67.351562 L 100.511719 67.351562 C 99.261719 67.351562 98.25 68.363281 98.25 69.613281 C 98.25 70.863281 99.261719 71.875 100.511719 71.875 L 120.875 71.875 C 122.125 71.875 123.136719 70.863281 123.136719 69.613281 C 123.136719 68.363281 122.125 67.351562 120.875 67.351562 Z M 120.875 67.351562 " fill-opacity="1" fill-rule="nonzero"/><path fill="#464a51" d="M 118.613281 94.5 L 100.511719 94.5 C 99.261719 94.5 98.25 95.511719 98.25 96.761719 C 98.25 98.011719 99.261719 99.023438 100.511719 99.023438 L 118.613281 99.023438 C 119.863281 99.023438 120.875 98.011719 120.875 96.761719 C 120.875 95.511719 119.863281 94.5 118.613281 94.5 Z M 118.613281 94.5 " fill-opacity="1" fill-rule="nonzero"/><path fill="#464a51" d="M 93.726562 26.625 L 118.613281 26.625 C 119.863281 26.625 120.875 25.613281 120.875 24.363281 C 120.875 23.113281 119.863281 22.101562 118.613281 22.101562 L 93.726562 22.101562 C 92.476562 22.101562 91.460938 23.113281 91.460938 24.363281 C 91.460938 25.613281 92.476562 26.625 93.726562 26.625 Z M 93.726562 26.625 " fill-opacity="1" fill-rule="nonzero"/><path fill="#464a51" d="M 77.886719 26.625 L 84.675781 26.625 C 85.925781 26.625 86.9375 25.613281 86.9375 24.363281 C 86.9375 23.113281 85.925781 22.101562 84.675781 22.101562 L 77.886719 22.101562 C 76.636719 22.101562 75.625 23.113281 75.625 24.363281 C 75.625 25.613281 76.636719 26.625 77.886719 26.625 Z M 77.886719 26.625 " fill-opacity="1" fill-rule="nonzero"/></svg>