<svg xmlns="http://www.w3.org/2000/svg" xmlns:xlink="http://www.w3.org/1999/xlink" width="200" zoomAndPan="magnify" viewBox="0 0 150 149.999998" height="200" preserveAspectRatio="xMidYMid meet" version="1.0"><defs><clipPath id="265b6ec2db"><path d="M 3.570312 20 L 141.570312 20 L 141.570312 130.335938 L 3.570312 130.335938 Z M 3.570312 20 " clip-rule="nonzero"/></clipPath><clipPath id="1179fbac55"><path d="M 3.570312 20 L 56 20 L 56 130.335938 L 3.570312 130.335938 Z M 3.570312 20 " clip-rule="nonzero"/></clipPath><clipPath id="a98b02e2fd"><path d="M 17 8.835938 L 28 8.835938 L 28 28 L 17 28 Z M 17 8.835938 " clip-rule="nonzero"/></clipPath><clipPath id="51659ddca0"><path d="M 51 8.835938 L 61 8.835938 L 61 28 L 51 28 Z M 51 8.835938 " clip-rule="nonzero"/></clipPath><clipPath id="7051a98144"><path d="M 84 8.835938 L 94 8.835938 L 94 28 L 84 28 Z M 84 8.835938 " clip-rule="nonzero"/></clipPath><clipPath id="01734dab16"><path d="M 117 8.835938 L 128 8.835938 L 128 28 L 117 28 Z M 117 8.835938 " clip-rule="nonzero"/></clipPath><clipPath id="451c2e8e9b"><path d="M 17 8.835938 L 28 8.835938 L 28 26 L 17 26 Z M 17 8.835938 " clip-rule="nonzero"/></clipPath><clipPath id="4860eecd72"><path d="M 51 8.835938 L 61 8.835938 L 61 26 L 51 26 Z M 51 8.835938 " clip-rule="nonzero"/></clipPath><clipPath id="1b82cfcc1a"><path d="M 84 8.835938 L 94 8.835938 L 94 26 L 84 26 Z M 84 8.835938 " clip-rule="nonzero"/></clipPath><clipPath id="588879ac6d"><path d="M 117 8.835938 L 128 8.835938 L 128 26 L 117 26 Z M 117 8.835938 " clip-rule="nonzero"/></clipPath><clipPath id="5a6e52182f"><path d="M 17 8.835938 L 28 8.835938 L 28 26 L 17 26 Z M 17 8.835938 " clip-rule="nonzero"/></clipPath><clipPath id="2b3bfc9ab3"><path d="M 51 8.835938 L 61 8.835938 L 61 26 L 51 26 Z M 51 8.835938 " clip-rule="nonzero"/></clipPath><clipPath id="95d1de2227"><path d="M 84 8.835938 L 94 8.835938 L 94 26 L 84 26 Z M 84 8.835938 " clip-rule="nonzero"/></clipPath><clipPath id="765154af49"><path d="M 117 8.835938 L 128 8.835938 L 128 26 L 117 26 Z M 117 8.835938 " clip-rule="nonzero"/></clipPath></defs><g clip-path="url(#265b6ec2db)"><path fill="#eaeae8" d="M 141.53125 130.335938 L 3.613281 130.335938 L 3.613281 20.746094 L 141.53125 20.746094 L 141.53125 130.335938 " fill-opacity="1" fill-rule="nonzero"/></g><g clip-path="url(#1179fbac55)"><path fill="#fbb540" d="M 55.925781 130.335938 L 3.613281 130.335938 L 3.613281 20.746094 L 55.925781 20.746094 L 55.925781 130.335938 " fill-opacity="1" fill-rule="nonzero"/></g><path fill="#d18d28" d="M 46.414062 106.511719 L 13.125 106.511719 L 13.125 77.921875 L 46.414062 77.921875 L 46.414062 106.511719 " fill-opacity="1" fill-rule="nonzero"/><path fill="#ff3444" d="M 34.527344 87.453125 L 29.769531 85.070312 L 25.015625 87.453125 L 25.015625 77.921875 L 34.527344 77.921875 L 34.527344 87.453125 " fill-opacity="1" fill-rule="nonzero"/><path fill="#97661d" d="M 34.527344 99.363281 L 25.015625 99.363281 C 23.703125 99.363281 22.636719 98.296875 22.636719 96.980469 C 22.636719 95.664062 23.703125 94.597656 25.015625 94.597656 L 34.527344 94.597656 C 35.839844 94.597656 36.902344 95.664062 36.902344 96.980469 C 36.902344 98.296875 35.839844 99.363281 34.527344 99.363281 " fill-opacity="1" fill-rule="nonzero"/><path fill="#cbcbcb" d="M 67.816406 58.863281 C 67.816406 54.917969 71.011719 51.714844 74.949219 51.714844 C 78.890625 51.714844 82.082031 54.917969 82.082031 58.863281 C 82.082031 62.8125 78.890625 66.011719 74.949219 66.011719 C 71.011719 66.011719 67.816406 62.8125 67.816406 58.863281 " fill-opacity="1" fill-rule="nonzero"/><path fill="#cbcbcb" d="M 91.59375 58.863281 C 91.59375 54.917969 94.789062 51.714844 98.726562 51.714844 C 102.667969 51.714844 105.863281 54.917969 105.863281 58.863281 C 105.863281 62.8125 102.667969 66.011719 98.726562 66.011719 C 94.789062 66.011719 91.59375 62.8125 91.59375 58.863281 " fill-opacity="1" fill-rule="nonzero"/><path fill="#cbcbcb" d="M 115.375 58.863281 C 115.375 54.917969 118.566406 51.714844 122.507812 51.714844 C 126.445312 51.714844 129.640625 54.917969 129.640625 58.863281 C 129.640625 62.8125 126.445312 66.011719 122.507812 66.011719 C 118.566406 66.011719 115.375 62.8125 115.375 58.863281 " fill-opacity="1" fill-rule="nonzero"/><path fill="#cbcbcb" d="M 67.816406 82.6875 C 67.816406 78.742188 71.011719 75.539062 74.949219 75.539062 C 78.890625 75.539062 82.082031 78.742188 82.082031 82.6875 C 82.082031 86.632812 78.890625 89.835938 74.949219 89.835938 C 71.011719 89.835938 67.816406 86.632812 67.816406 82.6875 " fill-opacity="1" fill-rule="nonzero"/><path fill="#ea9d2d" d="M 91.59375 82.6875 C 91.59375 78.742188 94.789062 75.539062 98.726562 75.539062 C 102.667969 75.539062 105.863281 78.742188 105.863281 82.6875 C 105.863281 86.632812 102.667969 89.835938 98.726562 89.835938 C 94.789062 89.835938 91.59375 86.632812 91.59375 82.6875 " fill-opacity="1" fill-rule="nonzero"/><path fill="#fbb540" d="M 115.375 82.6875 C 115.375 78.742188 118.566406 75.539062 122.507812 75.539062 C 126.445312 75.539062 129.640625 78.742188 129.640625 82.6875 C 129.640625 86.632812 126.445312 89.835938 122.507812 89.835938 C 118.566406 89.835938 115.375 86.632812 115.375 82.6875 " fill-opacity="1" fill-rule="nonzero"/><path fill="#fbb540" d="M 67.816406 106.511719 C 67.816406 102.5625 71.011719 99.363281 74.949219 99.363281 C 78.890625 99.363281 82.082031 102.5625 82.082031 106.511719 C 82.082031 110.457031 78.890625 113.65625 74.949219 113.65625 C 71.011719 113.65625 67.816406 110.457031 67.816406 106.511719 " fill-opacity="1" fill-rule="nonzero"/><path fill="#cbcbcb" d="M 91.59375 106.511719 C 91.59375 102.5625 94.789062 99.363281 98.726562 99.363281 C 102.667969 99.363281 105.863281 102.5625 105.863281 106.511719 C 105.863281 110.457031 102.667969 113.65625 98.726562 113.65625 C 94.789062 113.65625 91.59375 110.457031 91.59375 106.511719 " fill-opacity="1" fill-rule="nonzero"/><path fill="#fbb540" d="M 115.375 106.511719 C 115.375 102.5625 118.566406 99.363281 122.507812 99.363281 C 126.445312 99.363281 129.640625 102.5625 129.640625 106.511719 C 129.640625 110.457031 126.445312 113.65625 122.507812 113.65625 C 118.566406 113.65625 115.375 110.457031 115.375 106.511719 " fill-opacity="1" fill-rule="nonzero"/><path fill="#02a437" d="M 98.730469 85.070312 C 98.117188 85.070312 97.507812 84.835938 97.046875 84.371094 L 92.292969 79.605469 C 91.363281 78.675781 91.363281 77.167969 92.292969 76.238281 C 93.21875 75.308594 94.726562 75.308594 95.652344 76.238281 L 98.875 79.464844 L 111.472656 68.945312 C 112.480469 68.105469 113.980469 68.238281 114.820312 69.25 C 115.664062 70.261719 115.527344 71.761719 114.519531 72.605469 L 100.25 84.515625 C 99.808594 84.886719 99.265625 85.070312 98.730469 85.070312 " fill-opacity="1" fill-rule="nonzero"/><path fill="#eaeae8" d="M 17.882812 56.480469 C 17.882812 49.902344 23.203125 44.570312 29.769531 44.570312 C 36.335938 44.570312 41.660156 49.902344 41.660156 56.480469 C 41.660156 63.058594 36.335938 68.394531 29.769531 68.394531 C 23.203125 68.394531 17.882812 63.058594 17.882812 56.480469 " fill-opacity="1" fill-rule="nonzero"/><path fill="#cbcbcb" d="M 34.523438 61.246094 C 34.167969 61.246094 33.804688 61.164062 33.460938 60.996094 L 28.707031 58.613281 C 27.902344 58.207031 27.394531 57.382812 27.394531 56.480469 L 27.394531 51.714844 C 27.394531 50.402344 28.457031 49.335938 29.769531 49.335938 C 31.082031 49.335938 32.148438 50.402344 32.148438 51.714844 L 32.148438 55.007812 L 35.589844 56.734375 C 36.765625 57.320312 37.242188 58.753906 36.652344 59.929688 C 36.238281 60.765625 35.398438 61.246094 34.523438 61.246094 " fill-opacity="1" fill-rule="nonzero"/><g clip-path="url(#a98b02e2fd)"><path fill="#b9b9b9" d="M 22.636719 27.894531 C 20.011719 27.894531 17.882812 25.761719 17.882812 23.128906 L 17.882812 13.597656 C 17.882812 10.96875 20.011719 8.835938 22.636719 8.835938 C 25.261719 8.835938 27.394531 10.96875 27.394531 13.597656 L 27.394531 23.128906 C 27.394531 25.761719 25.261719 27.894531 22.636719 27.894531 " fill-opacity="1" fill-rule="nonzero"/></g><g clip-path="url(#51659ddca0)"><path fill="#b9b9b9" d="M 55.925781 27.894531 C 53.300781 27.894531 51.171875 25.761719 51.171875 23.128906 L 51.171875 13.597656 C 51.171875 10.96875 53.300781 8.835938 55.925781 8.835938 C 58.554688 8.835938 60.683594 10.96875 60.683594 13.597656 L 60.683594 23.128906 C 60.683594 25.761719 58.554688 27.894531 55.925781 27.894531 " fill-opacity="1" fill-rule="nonzero"/></g><g clip-path="url(#7051a98144)"><path fill="#b9b9b9" d="M 89.21875 27.894531 C 86.589844 27.894531 84.460938 25.761719 84.460938 23.128906 L 84.460938 13.597656 C 84.460938 10.96875 86.589844 8.835938 89.21875 8.835938 C 91.84375 8.835938 93.972656 10.96875 93.972656 13.597656 L 93.972656 23.128906 C 93.972656 25.761719 91.84375 27.894531 89.21875 27.894531 " fill-opacity="1" fill-rule="nonzero"/></g><g clip-path="url(#01734dab16)"><path fill="#b9b9b9" d="M 122.507812 27.894531 C 119.878906 27.894531 117.75 25.761719 117.75 23.128906 L 117.75 13.597656 C 117.75 10.96875 119.878906 8.835938 122.507812 8.835938 C 125.132812 8.835938 127.261719 10.96875 127.261719 13.597656 L 127.261719 23.128906 C 127.261719 25.761719 125.132812 27.894531 122.507812 27.894531 " fill-opacity="1" fill-rule="nonzero"/></g><g clip-path="url(#451c2e8e9b)"><path fill="#b9b9b9" d="M 27.394531 13.597656 L 27.394531 20.746094 C 27.394531 23.378906 25.265625 25.511719 22.636719 25.511719 C 20.007812 25.511719 17.882812 23.378906 17.882812 20.746094 L 17.882812 13.597656 C 17.882812 10.964844 20.007812 8.835938 22.636719 8.835938 C 23.949219 8.835938 25.140625 9.367188 26 10.226562 C 26.859375 11.089844 27.394531 12.28125 27.394531 13.597656 " fill-opacity="1" fill-rule="nonzero"/></g><g clip-path="url(#4860eecd72)"><path fill="#b9b9b9" d="M 60.683594 13.597656 L 60.683594 20.746094 C 60.683594 23.378906 58.554688 25.511719 55.925781 25.511719 C 53.300781 25.511719 51.171875 23.378906 51.171875 20.746094 L 51.171875 13.597656 C 51.171875 10.964844 53.300781 8.835938 55.925781 8.835938 C 57.242188 8.835938 58.429688 9.367188 59.292969 10.226562 C 60.152344 11.089844 60.683594 12.28125 60.683594 13.597656 " fill-opacity="1" fill-rule="nonzero"/></g><g clip-path="url(#1b82cfcc1a)"><path fill="#b9b9b9" d="M 93.972656 13.597656 L 93.972656 20.746094 C 93.972656 23.378906 91.84375 25.511719 89.21875 25.511719 C 86.589844 25.511719 84.460938 23.378906 84.460938 20.746094 L 84.460938 13.597656 C 84.460938 10.964844 86.589844 8.835938 89.21875 8.835938 C 90.53125 8.835938 91.71875 9.367188 92.582031 10.226562 C 93.441406 11.089844 93.972656 12.28125 93.972656 13.597656 " fill-opacity="1" fill-rule="nonzero"/></g><g clip-path="url(#588879ac6d)"><path fill="#b9b9b9" d="M 127.261719 13.597656 L 127.261719 20.746094 C 127.261719 23.378906 125.132812 25.511719 122.507812 25.511719 C 119.878906 25.511719 117.75 23.378906 117.75 20.746094 L 117.75 13.597656 C 117.75 10.964844 119.878906 8.835938 122.507812 8.835938 C 123.820312 8.835938 125.011719 9.367188 125.871094 10.226562 C 126.730469 11.089844 127.261719 12.28125 127.261719 13.597656 " fill-opacity="1" fill-rule="nonzero"/></g><g clip-path="url(#5a6e52182f)"><path fill="#cbcbcb" d="M 27.394531 13.597656 L 27.394531 20.746094 C 27.394531 23.378906 25.265625 25.511719 22.636719 25.511719 C 20.007812 25.511719 17.882812 23.378906 17.882812 20.746094 L 17.882812 13.597656 C 17.882812 10.964844 20.007812 8.835938 22.636719 8.835938 C 23.949219 8.835938 25.140625 9.367188 26 10.226562 C 26.859375 11.089844 27.394531 12.28125 27.394531 13.597656 " fill-opacity="1" fill-rule="nonzero"/></g><g clip-path="url(#2b3bfc9ab3)"><path fill="#cbcbcb" d="M 60.683594 13.597656 L 60.683594 20.746094 C 60.683594 23.378906 58.554688 25.511719 55.925781 25.511719 C 53.300781 25.511719 51.171875 23.378906 51.171875 20.746094 L 51.171875 13.597656 C 51.171875 10.964844 53.300781 8.835938 55.925781 8.835938 C 57.242188 8.835938 58.429688 9.367188 59.292969 10.226562 C 60.152344 11.089844 60.683594 12.28125 60.683594 13.597656 " fill-opacity="1" fill-rule="nonzero"/></g><g clip-path="url(#95d1de2227)"><path fill="#cbcbcb" d="M 93.972656 13.597656 L 93.972656 20.746094 C 93.972656 23.378906 91.84375 25.511719 89.21875 25.511719 C 86.589844 25.511719 84.460938 23.378906 84.460938 20.746094 L 84.460938 13.597656 C 84.460938 10.964844 86.589844 8.835938 89.21875 8.835938 C 90.53125 8.835938 91.71875 9.367188 92.582031 10.226562 C 93.441406 11.089844 93.972656 12.28125 93.972656 13.597656 " fill-opacity="1" fill-rule="nonzero"/></g><g clip-path="url(#765154af49)"><path fill="#cbcbcb" d="M 127.261719 13.597656 L 127.261719 20.746094 C 127.261719 23.378906 125.132812 25.511719 122.507812 25.511719 C 119.878906 25.511719 117.75 23.378906 117.75 20.746094 L 117.75 13.597656 C 117.75 10.964844 119.878906 8.835938 122.507812 8.835938 C 123.820312 8.835938 125.011719 9.367188 125.871094 10.226562 C 126.730469 11.089844 127.261719 12.28125 127.261719 13.597656 " fill-opacity="1" fill-rule="nonzero"/></g></svg>