<svg xmlns="http://www.w3.org/2000/svg" xmlns:xlink="http://www.w3.org/1999/xlink" width="200" zoomAndPan="magnify" viewBox="0 0 150 149.999998" height="200" preserveAspectRatio="xMidYMid meet" version="1.0"><defs><clipPath id="71e24b0d7d"><path d="M 5.125 5.125 L 144.625 5.125 L 144.625 144.625 L 5.125 144.625 Z M 5.125 5.125 " clip-rule="nonzero"/></clipPath><clipPath id="b217bc0295"><path d="M 139.394531 26.050781 L 112.074219 26.050781 L 112.074219 14.632812 C 112.074219 9.390625 107.808594 5.125 102.566406 5.125 L 79.734375 5.125 C 74.492188 5.125 70.226562 9.390625 70.226562 14.632812 L 70.226562 26.050781 L 60.925781 26.050781 L 60.925781 7.449219 C 60.925781 6.167969 59.882812 5.125 58.601562 5.125 L 16.75 5.125 C 15.464844 5.125 14.425781 6.167969 14.425781 7.449219 L 14.425781 26.050781 L 10.355469 26.050781 C 7.472656 26.050781 5.125 28.398438 5.125 31.28125 L 5.125 113.820312 C 5.125 116.703125 7.472656 119.050781 10.355469 119.050781 L 59.484375 119.050781 L 57.160156 130.675781 L 51.625 130.675781 C 45.214844 130.675781 40 135.890625 40 142.300781 C 40 143.582031 41.042969 144.625 42.324219 144.625 L 107.425781 144.625 C 108.707031 144.625 109.75 143.582031 109.75 142.300781 C 109.75 135.890625 104.535156 130.675781 98.125 130.675781 L 92.589844 130.675781 L 90.265625 119.050781 L 139.394531 119.050781 C 142.277344 119.050781 144.625 116.703125 144.625 113.820312 L 144.625 31.28125 C 144.625 28.398438 142.277344 26.050781 139.394531 26.050781 Z M 74.875 14.632812 C 74.875 11.953125 77.054688 9.773438 79.734375 9.773438 L 102.566406 9.773438 C 105.246094 9.773438 107.425781 11.953125 107.425781 14.632812 L 107.425781 28.167969 C 107.425781 30.84375 105.246094 33.023438 102.566406 33.023438 L 87.214844 33.023438 C 86.53125 33.023438 85.882812 33.324219 85.441406 33.84375 C 82.785156 36.972656 79.183594 39.015625 75.265625 39.722656 C 76.46875 38.578125 77.550781 37.300781 78.488281 35.914062 C 78.867188 35.359375 78.984375 34.667969 78.808594 34.015625 C 78.636719 33.367188 78.191406 32.824219 77.589844 32.527344 C 75.914062 31.703125 74.875 30.03125 74.875 28.167969 Z M 45.492188 22.210938 L 56.273438 12.628906 L 56.273438 30.597656 Z M 51.824219 33.023438 L 23.527344 33.023438 L 33.390625 25.351562 L 36.128906 27.789062 C 36.570312 28.179688 37.121094 28.375 37.675781 28.375 C 38.226562 28.375 38.777344 28.179688 39.21875 27.789062 L 41.960938 25.351562 Z M 52.484375 9.773438 L 37.675781 22.9375 L 22.867188 9.773438 Z M 19.074219 12.628906 L 29.855469 22.210938 L 19.074219 30.597656 Z M 98.125 135.324219 C 101.15625 135.324219 103.742188 137.269531 104.703125 139.976562 L 45.046875 139.976562 C 46.007812 137.269531 48.59375 135.324219 51.625 135.324219 Z M 61.902344 130.675781 L 64.226562 119.050781 L 85.523438 119.050781 L 87.847656 130.675781 Z M 139.976562 113.820312 C 139.976562 114.140625 139.714844 114.398438 139.394531 114.398438 L 62.316406 114.398438 C 62.308594 114.398438 62.304688 114.398438 62.300781 114.398438 L 10.355469 114.398438 C 10.035156 114.398438 9.773438 114.140625 9.773438 113.820312 L 9.773438 105.101562 L 139.976562 105.101562 Z M 139.976562 100.449219 L 9.773438 100.449219 L 9.773438 31.28125 C 9.773438 30.960938 10.035156 30.699219 10.355469 30.699219 L 14.425781 30.699219 L 14.425781 35.351562 C 14.425781 36.632812 15.464844 37.675781 16.75 37.675781 L 58.601562 37.675781 C 59.882812 37.675781 60.925781 36.632812 60.925781 35.351562 L 60.925781 30.699219 L 70.566406 30.699219 C 71.027344 32.398438 71.953125 33.925781 73.242188 35.121094 C 71.660156 36.933594 69.734375 38.429688 67.585938 39.503906 L 66.859375 39.867188 C 65.945312 40.324219 65.433594 41.328125 65.609375 42.339844 C 65.78125 43.347656 66.59375 44.125 67.613281 44.253906 L 69.417969 44.476562 C 70.339844 44.59375 71.261719 44.648438 72.175781 44.648438 C 78.25 44.648438 84.058594 42.152344 88.253906 37.675781 L 102.566406 37.675781 C 106.933594 37.675781 110.617188 34.714844 111.730469 30.699219 L 139.394531 30.699219 C 139.714844 30.699219 139.976562 30.960938 139.976562 31.28125 Z M 50.589844 46.175781 C 48.550781 42.917969 44.238281 41.921875 40.976562 43.960938 C 38.636719 45.425781 37.464844 48.0625 37.742188 50.640625 C 34.625 55.320312 31.023438 59.695312 27.007812 63.644531 L 19.324219 71.207031 L 15.105469 73.84375 C 13.65625 74.75 12.648438 76.164062 12.261719 77.832031 C 11.878906 79.496094 12.167969 81.210938 13.070312 82.65625 L 16.152344 87.585938 C 17.363281 89.523438 19.453125 90.589844 21.585938 90.589844 C 22.742188 90.589844 23.914062 90.273438 24.964844 89.617188 L 25.386719 89.355469 L 36.691406 96.9375 C 37.855469 97.722656 39.191406 98.125 40.5625 98.125 C 41.015625 98.125 41.472656 98.082031 41.925781 97.992188 C 43.753906 97.632812 45.332031 96.582031 46.371094 95.035156 C 48.511719 91.84375 47.660156 87.503906 44.464844 85.355469 L 40.792969 82.894531 C 45.65625 81.277344 50.671875 80.113281 55.742188 79.429688 C 56.863281 80.132812 58.160156 80.503906 59.476562 80.503906 C 60.738281 80.503906 62.015625 80.164062 63.164062 79.445312 C 64.742188 78.460938 65.84375 76.914062 66.261719 75.101562 C 66.679688 73.285156 66.367188 71.414062 65.378906 69.835938 Z M 22.5 85.671875 C 21.683594 86.183594 20.605469 85.933594 20.097656 85.121094 L 17.015625 80.1875 C 16.769531 79.796875 16.691406 79.328125 16.792969 78.875 C 16.898438 78.421875 17.175781 78.035156 17.570312 77.789062 L 20.03125 76.246094 L 24.964844 84.132812 Z M 41.875 89.21875 C 42.9375 89.933594 43.222656 91.378906 42.511719 92.445312 C 42.164062 92.960938 41.636719 93.308594 41.027344 93.429688 C 40.417969 93.550781 39.800781 93.425781 39.285156 93.078125 L 29.84375 86.746094 L 35.308594 84.8125 Z M 37.796875 79 L 29.152344 82.058594 L 23.734375 73.394531 L 30.269531 66.957031 C 33.835938 63.449219 37.09375 59.621094 40 55.550781 L 52.3125 75.246094 C 47.382812 76.078125 42.515625 77.332031 37.796875 79 Z M 61.730469 74.054688 C 61.589844 74.660156 61.226562 75.175781 60.699219 75.503906 C 59.609375 76.183594 58.171875 75.851562 57.496094 74.765625 L 42.703125 51.109375 C 42.023438 50.019531 42.355469 48.582031 43.441406 47.902344 C 43.824219 47.664062 44.25 47.550781 44.671875 47.550781 C 45.449219 47.550781 46.207031 47.9375 46.648438 48.644531 L 61.4375 72.300781 C 61.765625 72.828125 61.871094 73.449219 61.730469 74.054688 Z M 126.890625 40 L 106.558594 40 C 101.90625 40 98.125 43.78125 98.125 48.433594 L 98.125 64.117188 C 98.125 68.765625 101.90625 72.550781 106.558594 72.550781 L 126.890625 72.550781 C 131.542969 72.550781 135.324219 68.765625 135.324219 64.117188 L 135.324219 48.433594 C 135.324219 43.78125 131.542969 40 126.890625 40 Z M 130.675781 64.117188 C 130.675781 66.203125 128.976562 67.898438 126.890625 67.898438 L 106.558594 67.898438 C 104.472656 67.898438 102.773438 66.203125 102.773438 64.117188 L 102.773438 48.433594 C 102.773438 46.347656 104.472656 44.648438 106.558594 44.648438 L 126.890625 44.648438 C 128.976562 44.648438 130.675781 46.347656 130.675781 48.433594 Z M 124.894531 54.28125 L 113.269531 47.304688 C 112.554688 46.875 111.660156 46.863281 110.929688 47.277344 C 110.199219 47.6875 109.75 48.460938 109.75 49.300781 L 109.75 63.25 C 109.75 64.085938 110.199219 64.859375 110.929688 65.273438 C 111.285156 65.472656 111.679688 65.574219 112.074219 65.574219 C 112.488281 65.574219 112.902344 65.464844 113.269531 65.242188 L 124.894531 58.269531 C 125.597656 57.847656 126.023438 57.089844 126.023438 56.273438 C 126.023438 55.457031 125.597656 54.703125 124.894531 54.28125 Z M 114.398438 59.144531 L 114.398438 53.40625 L 119.179688 56.273438 Z M 88.824219 14.425781 C 88.824219 13.140625 89.867188 12.101562 91.148438 12.101562 L 100.449219 12.101562 C 101.734375 12.101562 102.773438 13.140625 102.773438 14.425781 C 102.773438 15.707031 101.734375 16.75 100.449219 16.75 L 91.148438 16.75 C 89.867188 16.75 88.824219 15.707031 88.824219 14.425781 Z M 77.199219 21.398438 C 77.199219 20.117188 78.242188 19.074219 79.523438 19.074219 L 100.449219 19.074219 C 101.734375 19.074219 102.773438 20.117188 102.773438 21.398438 C 102.773438 22.683594 101.734375 23.726562 100.449219 23.726562 L 79.523438 23.726562 C 78.242188 23.726562 77.199219 22.683594 77.199219 21.398438 Z M 77.199219 28.375 C 77.199219 27.089844 78.242188 26.050781 79.523438 26.050781 L 100.449219 26.050781 C 101.734375 26.050781 102.773438 27.089844 102.773438 28.375 C 102.773438 29.660156 101.734375 30.699219 100.449219 30.699219 L 79.523438 30.699219 C 78.242188 30.699219 77.199219 29.660156 77.199219 28.375 Z M 102.195312 74.875 L 97.035156 74.875 L 96.28125 71.863281 C 95.699219 69.527344 93.609375 67.898438 91.207031 67.898438 L 86.445312 67.898438 C 84.039062 67.898438 81.953125 69.527344 81.371094 71.859375 L 80.617188 74.875 L 75.457031 74.875 C 72.570312 74.875 70.226562 77.222656 70.226562 80.105469 L 70.226562 92.894531 C 70.226562 95.777344 72.570312 98.125 75.457031 98.125 L 102.195312 98.125 C 105.078125 98.125 107.425781 95.777344 107.425781 92.894531 L 107.425781 80.105469 C 107.425781 77.222656 105.078125 74.875 102.195312 74.875 Z M 85.882812 72.988281 C 85.945312 72.730469 86.175781 72.550781 86.445312 72.550781 L 91.207031 72.550781 C 91.472656 72.550781 91.703125 72.730469 91.769531 72.988281 L 92.242188 74.875 L 85.410156 74.875 Z M 82.683594 93.476562 L 75.457031 93.476562 C 75.136719 93.476562 74.875 93.214844 74.875 92.894531 L 74.875 80.105469 C 74.875 79.785156 75.136719 79.523438 75.457031 79.523438 L 82.683594 79.523438 C 80.75 81.230469 79.523438 83.722656 79.523438 86.5 C 79.523438 89.277344 80.75 91.769531 82.683594 93.476562 Z M 88.824219 91.148438 C 86.261719 91.148438 84.175781 89.0625 84.175781 86.5 C 84.175781 83.9375 86.261719 81.851562 88.824219 81.851562 C 91.390625 81.851562 93.476562 83.9375 93.476562 86.5 C 93.476562 89.0625 91.390625 91.148438 88.824219 91.148438 Z M 102.773438 92.894531 C 102.773438 93.214844 102.515625 93.476562 102.195312 93.476562 L 94.964844 93.476562 C 96.902344 91.769531 98.125 89.277344 98.125 86.5 C 98.125 83.722656 96.902344 81.230469 94.964844 79.523438 L 95.203125 79.523438 C 95.207031 79.523438 95.210938 79.527344 95.21875 79.527344 C 95.21875 79.527344 95.222656 79.523438 95.226562 79.523438 L 102.195312 79.523438 C 102.515625 79.523438 102.773438 79.785156 102.773438 80.105469 Z M 60.925781 109.75 C 60.925781 108.464844 61.964844 107.425781 63.25 107.425781 L 86.5 107.425781 C 87.785156 107.425781 88.824219 108.464844 88.824219 109.75 C 88.824219 111.035156 87.785156 112.074219 86.5 112.074219 L 63.25 112.074219 C 61.964844 112.074219 60.925781 111.035156 60.925781 109.75 Z M 60.925781 109.75 " clip-rule="nonzero"/></clipPath><linearGradient x1="0.532529" gradientTransform="matrix(0.290625, 0, 0, 0.290625, 0.475002, 0.475008)" y1="480.532472" x2="480.532492" gradientUnits="userSpaceOnUse" y2="0.532509" id="eff52c7697"><stop stop-opacity="1" stop-color="rgb(36.898804%, 73.699951%, 89.7995%)" offset="0"/><stop stop-opacity="1" stop-color="rgb(36.898804%, 73.699951%, 89.7995%)" offset="0.0625"/><stop stop-opacity="1" stop-color="rgb(36.898804%, 73.699951%, 89.7995%)" offset="0.09375"/><stop stop-opacity="1" stop-color="rgb(36.898804%, 73.699951%, 89.7995%)" offset="0.101562"/><stop stop-opacity="1" stop-color="rgb(38.697815%, 72.355652%, 89.802551%)" offset="0.105469"/><stop stop-opacity="1" stop-color="rgb(40.498352%, 71.012878%, 89.805603%)" offset="0.109375"/><stop stop-opacity="1" stop-color="rgb(40.788269%, 70.787048%, 89.808655%)" offset="0.113281"/><stop stop-opacity="1" stop-color="rgb(41.079712%, 70.562744%, 89.813232%)" offset="0.117188"/><stop stop-opacity="1" stop-color="rgb(41.369629%, 70.336914%, 89.816284%)" offset="0.121094"/><stop stop-opacity="1" stop-color="rgb(41.661072%, 70.11261%, 89.820862%)" offset="0.125"/><stop stop-opacity="1" stop-color="rgb(41.950989%, 69.88678%, 89.823914%)" offset="0.128906"/><stop stop-opacity="1" stop-color="rgb(42.242432%, 69.662476%, 89.828491%)" offset="0.132813"/><stop stop-opacity="1" stop-color="rgb(42.532349%, 69.438171%, 89.831543%)" offset="0.136719"/><stop stop-opacity="1" stop-color="rgb(42.823792%, 69.213867%, 89.834595%)" offset="0.140625"/><stop stop-opacity="1" stop-color="rgb(43.113708%, 68.988037%, 89.837646%)" offset="0.144531"/><stop stop-opacity="1" stop-color="rgb(43.405151%, 68.763733%, 89.842224%)" offset="0.148438"/><stop stop-opacity="1" stop-color="rgb(43.695068%, 68.537903%, 89.845276%)" offset="0.152344"/><stop stop-opacity="1" stop-color="rgb(43.986511%, 68.313599%, 89.849854%)" offset="0.15625"/><stop stop-opacity="1" stop-color="rgb(44.276428%, 68.087769%, 89.852905%)" offset="0.160156"/><stop stop-opacity="1" stop-color="rgb(44.567871%, 67.863464%, 89.857483%)" offset="0.164062"/><stop stop-opacity="1" stop-color="rgb(44.857788%, 67.637634%, 89.860535%)" offset="0.167969"/><stop stop-opacity="1" stop-color="rgb(45.149231%, 67.41333%, 89.865112%)" offset="0.171875"/><stop stop-opacity="1" stop-color="rgb(45.439148%, 67.1875%, 89.868164%)" offset="0.175781"/><stop stop-opacity="1" stop-color="rgb(45.730591%, 66.963196%, 89.872742%)" offset="0.179688"/><stop stop-opacity="1" stop-color="rgb(46.022034%, 66.737366%, 89.875793%)" offset="0.183594"/><stop stop-opacity="1" stop-color="rgb(46.313477%, 66.513062%, 89.880371%)" offset="0.1875"/><stop stop-opacity="1" stop-color="rgb(46.603394%, 66.287231%, 89.883423%)" offset="0.191406"/><stop stop-opacity="1" stop-color="rgb(46.894836%, 66.062927%, 89.886475%)" offset="0.195313"/><stop stop-opacity="1" stop-color="rgb(47.184753%, 65.837097%, 89.889526%)" offset="0.199219"/><stop stop-opacity="1" stop-color="rgb(47.476196%, 65.612793%, 89.894104%)" offset="0.203125"/><stop stop-opacity="1" stop-color="rgb(47.766113%, 65.386963%, 89.897156%)" offset="0.207031"/><stop stop-opacity="1" stop-color="rgb(48.057556%, 65.162659%, 89.901733%)" offset="0.210938"/><stop stop-opacity="1" stop-color="rgb(48.347473%, 64.938354%, 89.904785%)" offset="0.214844"/><stop stop-opacity="1" stop-color="rgb(48.638916%, 64.71405%, 89.909363%)" offset="0.21875"/><stop stop-opacity="1" stop-color="rgb(48.928833%, 64.48822%, 89.912415%)" offset="0.222656"/><stop stop-opacity="1" stop-color="rgb(49.220276%, 64.263916%, 89.916992%)" offset="0.226563"/><stop stop-opacity="1" stop-color="rgb(49.510193%, 64.038086%, 89.920044%)" offset="0.230469"/><stop stop-opacity="1" stop-color="rgb(49.801636%, 63.813782%, 89.924622%)" offset="0.234375"/><stop stop-opacity="1" stop-color="rgb(50.091553%, 63.587952%, 89.927673%)" offset="0.238281"/><stop stop-opacity="1" stop-color="rgb(50.382996%, 63.363647%, 89.932251%)" offset="0.242188"/><stop stop-opacity="1" stop-color="rgb(50.672913%, 63.137817%, 89.935303%)" offset="0.246094"/><stop stop-opacity="1" stop-color="rgb(50.964355%, 62.913513%, 89.938354%)" offset="0.25"/><stop stop-opacity="1" stop-color="rgb(51.254272%, 62.687683%, 89.941406%)" offset="0.253906"/><stop stop-opacity="1" stop-color="rgb(51.545715%, 62.463379%, 89.945984%)" offset="0.257813"/><stop stop-opacity="1" stop-color="rgb(51.835632%, 62.237549%, 89.949036%)" offset="0.261719"/><stop stop-opacity="1" stop-color="rgb(52.127075%, 62.013245%, 89.953613%)" offset="0.265625"/><stop stop-opacity="1" stop-color="rgb(52.416992%, 61.787415%, 89.956665%)" offset="0.269531"/><stop stop-opacity="1" stop-color="rgb(52.708435%, 61.56311%, 89.961243%)" offset="0.273438"/><stop stop-opacity="1" stop-color="rgb(52.998352%, 61.33728%, 89.964294%)" offset="0.277344"/><stop stop-opacity="1" stop-color="rgb(53.289795%, 61.112976%, 89.968872%)" offset="0.28125"/><stop stop-opacity="1" stop-color="rgb(53.579712%, 60.887146%, 89.971924%)" offset="0.285156"/><stop stop-opacity="1" stop-color="rgb(53.871155%, 60.662842%, 89.976501%)" offset="0.289062"/><stop stop-opacity="1" stop-color="rgb(54.161072%, 60.438538%, 89.979553%)" offset="0.292969"/><stop stop-opacity="1" stop-color="rgb(54.452515%, 60.214233%, 89.982605%)" offset="0.296875"/><stop stop-opacity="1" stop-color="rgb(54.743958%, 59.988403%, 89.985657%)" offset="0.300781"/><stop stop-opacity="1" stop-color="rgb(55.0354%, 59.764099%, 89.990234%)" offset="0.304688"/><stop stop-opacity="1" stop-color="rgb(55.325317%, 59.538269%, 89.993286%)" offset="0.308594"/><stop stop-opacity="1" stop-color="rgb(55.61676%, 59.313965%, 89.997864%)" offset="0.3125"/><stop stop-opacity="1" stop-color="rgb(55.906677%, 59.088135%, 90.000916%)" offset="0.316406"/><stop stop-opacity="1" stop-color="rgb(56.19812%, 58.863831%, 90.005493%)" offset="0.320312"/><stop stop-opacity="1" stop-color="rgb(56.488037%, 58.638%, 90.008545%)" offset="0.324219"/><stop stop-opacity="1" stop-color="rgb(56.77948%, 58.413696%, 90.013123%)" offset="0.328125"/><stop stop-opacity="1" stop-color="rgb(57.069397%, 58.187866%, 90.016174%)" offset="0.332031"/><stop stop-opacity="1" stop-color="rgb(57.36084%, 57.963562%, 90.020752%)" offset="0.335938"/><stop stop-opacity="1" stop-color="rgb(57.650757%, 57.737732%, 90.023804%)" offset="0.339844"/><stop stop-opacity="1" stop-color="rgb(57.9422%, 57.513428%, 90.028381%)" offset="0.34375"/><stop stop-opacity="1" stop-color="rgb(58.232117%, 57.287598%, 90.031433%)" offset="0.347656"/><stop stop-opacity="1" stop-color="rgb(58.52356%, 57.063293%, 90.034485%)" offset="0.351563"/><stop stop-opacity="1" stop-color="rgb(58.813477%, 56.837463%, 90.037537%)" offset="0.355469"/><stop stop-opacity="1" stop-color="rgb(59.104919%, 56.613159%, 90.042114%)" offset="0.359375"/><stop stop-opacity="1" stop-color="rgb(59.394836%, 56.387329%, 90.045166%)" offset="0.363281"/><stop stop-opacity="1" stop-color="rgb(59.686279%, 56.163025%, 90.049744%)" offset="0.367188"/><stop stop-opacity="1" stop-color="rgb(59.976196%, 55.937195%, 90.052795%)" offset="0.371094"/><stop stop-opacity="1" stop-color="rgb(60.267639%, 55.712891%, 90.057373%)" offset="0.375"/><stop stop-opacity="1" stop-color="rgb(60.557556%, 55.488586%, 90.060425%)" offset="0.378906"/><stop stop-opacity="1" stop-color="rgb(60.848999%, 55.264282%, 90.065002%)" offset="0.382813"/><stop stop-opacity="1" stop-color="rgb(61.138916%, 55.038452%, 90.068054%)" offset="0.386719"/><stop stop-opacity="1" stop-color="rgb(61.430359%, 54.814148%, 90.072632%)" offset="0.390625"/><stop stop-opacity="1" stop-color="rgb(61.720276%, 54.588318%, 90.075684%)" offset="0.394531"/><stop stop-opacity="1" stop-color="rgb(62.011719%, 54.364014%, 90.080261%)" offset="0.398438"/><stop stop-opacity="1" stop-color="rgb(62.301636%, 54.138184%, 90.083313%)" offset="0.402344"/><stop stop-opacity="1" stop-color="rgb(62.593079%, 53.913879%, 90.086365%)" offset="0.40625"/><stop stop-opacity="1" stop-color="rgb(62.884521%, 53.688049%, 90.089417%)" offset="0.410156"/><stop stop-opacity="1" stop-color="rgb(63.175964%, 53.463745%, 90.093994%)" offset="0.414063"/><stop stop-opacity="1" stop-color="rgb(63.465881%, 53.237915%, 90.097046%)" offset="0.417969"/><stop stop-opacity="1" stop-color="rgb(63.757324%, 53.013611%, 90.101624%)" offset="0.421875"/><stop stop-opacity="1" stop-color="rgb(64.047241%, 52.787781%, 90.104675%)" offset="0.425781"/><stop stop-opacity="1" stop-color="rgb(64.338684%, 52.563477%, 90.109253%)" offset="0.429688"/><stop stop-opacity="1" stop-color="rgb(64.628601%, 52.337646%, 90.112305%)" offset="0.433594"/><stop stop-opacity="1" stop-color="rgb(64.920044%, 52.113342%, 90.116882%)" offset="0.4375"/><stop stop-opacity="1" stop-color="rgb(65.209961%, 51.887512%, 90.119934%)" offset="0.441406"/><stop stop-opacity="1" stop-color="rgb(65.501404%, 51.663208%, 90.124512%)" offset="0.445313"/><stop stop-opacity="1" stop-color="rgb(65.791321%, 51.437378%, 90.127563%)" offset="0.449219"/><stop stop-opacity="1" stop-color="rgb(66.082764%, 51.213074%, 90.132141%)" offset="0.453125"/><stop stop-opacity="1" stop-color="rgb(66.372681%, 50.98877%, 90.135193%)" offset="0.457031"/><stop stop-opacity="1" stop-color="rgb(66.664124%, 50.764465%, 90.138245%)" offset="0.460938"/><stop stop-opacity="1" stop-color="rgb(66.954041%, 50.538635%, 90.141296%)" offset="0.464844"/><stop stop-opacity="1" stop-color="rgb(67.245483%, 50.314331%, 90.145874%)" offset="0.46875"/><stop stop-opacity="1" stop-color="rgb(67.5354%, 50.088501%, 90.148926%)" offset="0.472656"/><stop stop-opacity="1" stop-color="rgb(67.826843%, 49.864197%, 90.153503%)" offset="0.476562"/><stop stop-opacity="1" stop-color="rgb(68.11676%, 49.638367%, 90.156555%)" offset="0.480469"/><stop stop-opacity="1" stop-color="rgb(68.408203%, 49.414062%, 90.161133%)" offset="0.484375"/><stop stop-opacity="1" stop-color="rgb(68.69812%, 49.188232%, 90.164185%)" offset="0.488281"/><stop stop-opacity="1" stop-color="rgb(68.989563%, 48.963928%, 90.168762%)" offset="0.492188"/><stop stop-opacity="1" stop-color="rgb(69.27948%, 48.738098%, 90.171814%)" offset="0.496094"/><stop stop-opacity="1" stop-color="rgb(69.570923%, 48.513794%, 90.176392%)" offset="0.5"/><stop stop-opacity="1" stop-color="rgb(69.86084%, 48.287964%, 90.179443%)" offset="0.503906"/><stop stop-opacity="1" stop-color="rgb(70.152283%, 48.06366%, 90.184021%)" offset="0.507813"/><stop stop-opacity="1" stop-color="rgb(70.4422%, 47.83783%, 90.187073%)" offset="0.511719"/><stop stop-opacity="1" stop-color="rgb(70.733643%, 47.613525%, 90.190125%)" offset="0.515625"/><stop stop-opacity="1" stop-color="rgb(71.02356%, 47.387695%, 90.193176%)" offset="0.519531"/><stop stop-opacity="1" stop-color="rgb(71.315002%, 47.163391%, 90.197754%)" offset="0.523438"/><stop stop-opacity="1" stop-color="rgb(71.504211%, 47.033691%, 89.749146%)" offset="0.527344"/><stop stop-opacity="1" stop-color="rgb(71.694946%, 46.903992%, 89.302063%)" offset="0.53125"/><stop stop-opacity="1" stop-color="rgb(71.867371%, 46.789551%, 88.778687%)" offset="0.535156"/><stop stop-opacity="1" stop-color="rgb(72.039795%, 46.67511%, 88.25531%)" offset="0.539062"/><stop stop-opacity="1" stop-color="rgb(72.212219%, 46.560669%, 87.731934%)" offset="0.542969"/><stop stop-opacity="1" stop-color="rgb(72.384644%, 46.446228%, 87.208557%)" offset="0.546875"/><stop stop-opacity="1" stop-color="rgb(72.557068%, 46.331787%, 86.683655%)" offset="0.550781"/><stop stop-opacity="1" stop-color="rgb(72.729492%, 46.217346%, 86.160278%)" offset="0.554688"/><stop stop-opacity="1" stop-color="rgb(72.901917%, 46.102905%, 85.636902%)" offset="0.558594"/><stop stop-opacity="1" stop-color="rgb(73.074341%, 45.988464%, 85.113525%)" offset="0.5625"/><stop stop-opacity="1" stop-color="rgb(73.246765%, 45.874023%, 84.590149%)" offset="0.566406"/><stop stop-opacity="1" stop-color="rgb(73.419189%, 45.759583%, 84.066772%)" offset="0.570312"/><stop stop-opacity="1" stop-color="rgb(73.591614%, 45.645142%, 83.543396%)" offset="0.574219"/><stop stop-opacity="1" stop-color="rgb(73.765564%, 45.530701%, 83.02002%)" offset="0.578125"/><stop stop-opacity="1" stop-color="rgb(73.937988%, 45.41626%, 82.495117%)" offset="0.582031"/><stop stop-opacity="1" stop-color="rgb(74.110413%, 45.301819%, 81.971741%)" offset="0.585938"/><stop stop-opacity="1" stop-color="rgb(74.282837%, 45.187378%, 81.448364%)" offset="0.589844"/><stop stop-opacity="1" stop-color="rgb(74.455261%, 45.074463%, 80.924988%)" offset="0.59375"/><stop stop-opacity="1" stop-color="rgb(74.627686%, 44.960022%, 80.401611%)" offset="0.597656"/><stop stop-opacity="1" stop-color="rgb(74.80011%, 44.845581%, 79.878235%)" offset="0.601562"/><stop stop-opacity="1" stop-color="rgb(74.972534%, 44.73114%, 79.354858%)" offset="0.605469"/><stop stop-opacity="1" stop-color="rgb(75.144958%, 44.616699%, 78.831482%)" offset="0.609375"/><stop stop-opacity="1" stop-color="rgb(75.317383%, 44.502258%, 78.30658%)" offset="0.613281"/><stop stop-opacity="1" stop-color="rgb(75.489807%, 44.387817%, 77.783203%)" offset="0.617188"/><stop stop-opacity="1" stop-color="rgb(75.662231%, 44.273376%, 77.259827%)" offset="0.621094"/><stop stop-opacity="1" stop-color="rgb(75.834656%, 44.158936%, 76.73645%)" offset="0.625"/><stop stop-opacity="1" stop-color="rgb(76.00708%, 44.044495%, 76.213074%)" offset="0.628906"/><stop stop-opacity="1" stop-color="rgb(76.18103%, 43.930054%, 75.689697%)" offset="0.632813"/><stop stop-opacity="1" stop-color="rgb(76.353455%, 43.815613%, 75.164795%)" offset="0.636719"/><stop stop-opacity="1" stop-color="rgb(76.525879%, 43.701172%, 74.641418%)" offset="0.640625"/><stop stop-opacity="1" stop-color="rgb(76.698303%, 43.586731%, 74.118042%)" offset="0.644531"/><stop stop-opacity="1" stop-color="rgb(76.870728%, 43.47229%, 73.594666%)" offset="0.648438"/><stop stop-opacity="1" stop-color="rgb(77.043152%, 43.357849%, 73.071289%)" offset="0.652344"/><stop stop-opacity="1" stop-color="rgb(77.215576%, 43.244934%, 72.547913%)" offset="0.65625"/><stop stop-opacity="1" stop-color="rgb(77.388%, 43.130493%, 72.024536%)" offset="0.660156"/><stop stop-opacity="1" stop-color="rgb(77.560425%, 43.016052%, 71.50116%)" offset="0.664063"/><stop stop-opacity="1" stop-color="rgb(77.732849%, 42.901611%, 70.976257%)" offset="0.667969"/><stop stop-opacity="1" stop-color="rgb(77.905273%, 42.78717%, 70.452881%)" offset="0.671875"/><stop stop-opacity="1" stop-color="rgb(78.077698%, 42.672729%, 69.929504%)" offset="0.675781"/><stop stop-opacity="1" stop-color="rgb(78.250122%, 42.558289%, 69.406128%)" offset="0.679688"/><stop stop-opacity="1" stop-color="rgb(78.422546%, 42.443848%, 68.882751%)" offset="0.683594"/><stop stop-opacity="1" stop-color="rgb(78.594971%, 42.329407%, 68.359375%)" offset="0.6875"/><stop stop-opacity="1" stop-color="rgb(78.767395%, 42.214966%, 67.835999%)" offset="0.691406"/><stop stop-opacity="1" stop-color="rgb(78.941345%, 42.100525%, 67.312622%)" offset="0.695313"/><stop stop-opacity="1" stop-color="rgb(79.11377%, 41.986084%, 66.78772%)" offset="0.699219"/><stop stop-opacity="1" stop-color="rgb(79.286194%, 41.871643%, 66.264343%)" offset="0.703125"/><stop stop-opacity="1" stop-color="rgb(79.458618%, 41.757202%, 65.740967%)" offset="0.707031"/><stop stop-opacity="1" stop-color="rgb(79.631042%, 41.642761%, 65.21759%)" offset="0.710938"/><stop stop-opacity="1" stop-color="rgb(79.803467%, 41.52832%, 64.694214%)" offset="0.714844"/><stop stop-opacity="1" stop-color="rgb(79.975891%, 41.415405%, 64.170837%)" offset="0.71875"/><stop stop-opacity="1" stop-color="rgb(80.148315%, 41.300964%, 63.647461%)" offset="0.722656"/><stop stop-opacity="1" stop-color="rgb(80.32074%, 41.186523%, 63.124084%)" offset="0.726562"/><stop stop-opacity="1" stop-color="rgb(80.493164%, 41.072083%, 62.599182%)" offset="0.730469"/><stop stop-opacity="1" stop-color="rgb(80.665588%, 40.957642%, 62.075806%)" offset="0.734375"/><stop stop-opacity="1" stop-color="rgb(80.838013%, 40.843201%, 61.552429%)" offset="0.738281"/><stop stop-opacity="1" stop-color="rgb(81.010437%, 40.72876%, 61.029053%)" offset="0.742188"/><stop stop-opacity="1" stop-color="rgb(81.182861%, 40.614319%, 60.505676%)" offset="0.746094"/><stop stop-opacity="1" stop-color="rgb(81.355286%, 40.499878%, 59.9823%)" offset="0.75"/><stop stop-opacity="1" stop-color="rgb(81.52771%, 40.385437%, 59.457397%)" offset="0.753906"/><stop stop-opacity="1" stop-color="rgb(81.70166%, 40.270996%, 58.934021%)" offset="0.757813"/><stop stop-opacity="1" stop-color="rgb(81.874084%, 40.156555%, 58.410645%)" offset="0.761719"/><stop stop-opacity="1" stop-color="rgb(82.046509%, 40.042114%, 57.887268%)" offset="0.765625"/><stop stop-opacity="1" stop-color="rgb(82.218933%, 39.927673%, 57.363892%)" offset="0.769531"/><stop stop-opacity="1" stop-color="rgb(82.391357%, 39.813232%, 56.840515%)" offset="0.773438"/><stop stop-opacity="1" stop-color="rgb(82.563782%, 39.698792%, 56.317139%)" offset="0.777344"/><stop stop-opacity="1" stop-color="rgb(82.736206%, 39.585876%, 55.793762%)" offset="0.78125"/><stop stop-opacity="1" stop-color="rgb(82.90863%, 39.471436%, 55.26886%)" offset="0.785156"/><stop stop-opacity="1" stop-color="rgb(83.081055%, 39.356995%, 54.745483%)" offset="0.789063"/><stop stop-opacity="1" stop-color="rgb(83.253479%, 39.242554%, 54.222107%)" offset="0.792969"/><stop stop-opacity="1" stop-color="rgb(83.425903%, 39.128113%, 53.69873%)" offset="0.796875"/><stop stop-opacity="1" stop-color="rgb(83.598328%, 39.013672%, 53.175354%)" offset="0.800781"/><stop stop-opacity="1" stop-color="rgb(83.770752%, 38.899231%, 52.651978%)" offset="0.804688"/><stop stop-opacity="1" stop-color="rgb(83.943176%, 38.78479%, 52.128601%)" offset="0.808594"/><stop stop-opacity="1" stop-color="rgb(84.115601%, 38.670349%, 51.605225%)" offset="0.8125"/><stop stop-opacity="1" stop-color="rgb(84.288025%, 38.555908%, 51.080322%)" offset="0.816406"/><stop stop-opacity="1" stop-color="rgb(84.461975%, 38.441467%, 50.556946%)" offset="0.820313"/><stop stop-opacity="1" stop-color="rgb(84.634399%, 38.327026%, 50.033569%)" offset="0.824219"/><stop stop-opacity="1" stop-color="rgb(84.806824%, 38.212585%, 49.510193%)" offset="0.828125"/><stop stop-opacity="1" stop-color="rgb(84.979248%, 38.098145%, 48.986816%)" offset="0.832031"/><stop stop-opacity="1" stop-color="rgb(85.151672%, 37.983704%, 48.46344%)" offset="0.835938"/><stop stop-opacity="1" stop-color="rgb(85.324097%, 37.869263%, 47.938538%)" offset="0.839844"/><stop stop-opacity="1" stop-color="rgb(85.496521%, 37.756348%, 47.415161%)" offset="0.84375"/><stop stop-opacity="1" stop-color="rgb(85.668945%, 37.641907%, 46.891785%)" offset="0.847656"/><stop stop-opacity="1" stop-color="rgb(85.84137%, 37.527466%, 46.368408%)" offset="0.851563"/><stop stop-opacity="1" stop-color="rgb(86.013794%, 37.413025%, 45.845032%)" offset="0.855469"/><stop stop-opacity="1" stop-color="rgb(86.186218%, 37.298584%, 45.321655%)" offset="0.859375"/><stop stop-opacity="1" stop-color="rgb(86.358643%, 37.184143%, 44.798279%)" offset="0.863281"/><stop stop-opacity="1" stop-color="rgb(86.531067%, 37.069702%, 44.274902%)" offset="0.867188"/><stop stop-opacity="1" stop-color="rgb(86.703491%, 36.955261%, 43.75%)" offset="0.871094"/><stop stop-opacity="1" stop-color="rgb(86.875916%, 36.84082%, 43.226624%)" offset="0.875"/><stop stop-opacity="1" stop-color="rgb(87.04834%, 36.726379%, 42.703247%)" offset="0.878906"/><stop stop-opacity="1" stop-color="rgb(87.22229%, 36.611938%, 42.179871%)" offset="0.882813"/><stop stop-opacity="1" stop-color="rgb(87.394714%, 36.497498%, 41.656494%)" offset="0.886719"/><stop stop-opacity="1" stop-color="rgb(87.567139%, 36.383057%, 41.133118%)" offset="0.890625"/><stop stop-opacity="1" stop-color="rgb(87.739563%, 36.268616%, 40.609741%)" offset="0.894531"/><stop stop-opacity="1" stop-color="rgb(87.911987%, 36.154175%, 40.086365%)" offset="0.898438"/><stop stop-opacity="1" stop-color="rgb(88.084412%, 36.039734%, 39.561462%)" offset="0.902344"/><stop stop-opacity="1" stop-color="rgb(88.256836%, 35.926819%, 39.038086%)" offset="0.90625"/><stop stop-opacity="1" stop-color="rgb(88.427734%, 35.812378%, 38.517761%)" offset="0.910156"/><stop stop-opacity="1" stop-color="rgb(88.598633%, 35.699463%, 37.998962%)" offset="0.914063"/><stop stop-opacity="1" stop-color="rgb(88.598633%, 35.699463%, 37.998962%)" offset="0.921875"/><stop stop-opacity="1" stop-color="rgb(88.598633%, 35.699463%, 37.998962%)" offset="0.9375"/><stop stop-opacity="1" stop-color="rgb(88.598633%, 35.699463%, 37.998962%)" offset="1"/></linearGradient></defs><g clip-path="url(#71e24b0d7d)"><g clip-path="url(#b217bc0295)"><path fill="url(#eff52c7697)" d="M 5.125 5.125 L 5.125 144.625 L 144.625 144.625 L 144.625 5.125 Z M 5.125 5.125 " fill-rule="nonzero"/></g></g></svg>